<?xml version="1.0" encoding="UTF-8"?>
<svg xmlns="http://www.w3.org/2000/svg" xmlns:xlink="http://www.w3.org/1999/xlink" width="560" height="170" viewBox="0 0 560 170">
<defs>
<g>
<g id="glyph-0-0">
<path d="M 1.109375 -9.324219 L 7.578125 -9.324219 L 7.578125 -8.183594 L 2.375 -8.183594 L 2.375 -5.351562 L 6.949219 -5.351562 L 6.949219 -4.242188 L 2.375 -4.242188 L 2.375 0 L 1.109375 0 Z M 1.109375 -9.324219 "/>
</g>
<g id="glyph-0-1">
<path d="M 4.917969 -9.578125 C 6.101562 -9.578125 7.015625 -9.265625 7.667969 -8.644531 C 8.320312 -8.023438 8.679688 -7.316406 8.753906 -6.523438 L 7.523438 -6.523438 C 7.382812 -7.125 7.105469 -7.601562 6.6875 -7.953125 C 6.269531 -8.304688 5.683594 -8.480469 4.933594 -8.480469 C 4.015625 -8.480469 3.273438 -8.15625 2.707031 -7.511719 C 2.140625 -6.867188 1.859375 -5.878906 1.859375 -4.546875 C 1.859375 -3.453125 2.113281 -2.566406 2.625 -1.886719 C 3.132812 -1.207031 3.894531 -0.871094 4.90625 -0.871094 C 5.835938 -0.871094 6.546875 -1.226562 7.03125 -1.941406 C 7.289062 -2.320312 7.484375 -2.8125 7.609375 -3.429688 L 8.84375 -3.429688 C 8.734375 -2.445312 8.367188 -1.621094 7.75 -0.957031 C 7.007812 -0.15625 6.011719 0.242188 4.753906 0.242188 C 3.671875 0.242188 2.761719 -0.0859375 2.023438 -0.742188 C 1.054688 -1.609375 0.570312 -2.949219 0.570312 -4.761719 C 0.570312 -6.136719 0.933594 -7.265625 1.664062 -8.144531 C 2.449219 -9.101562 3.535156 -9.578125 4.917969 -9.578125 Z M 4.917969 -9.578125 "/>
</g>
<g id="glyph-0-2">
<path d="M 1.816406 -3.007812 C 1.84375 -2.480469 1.96875 -2.050781 2.191406 -1.71875 C 2.609375 -1.101562 3.347656 -0.792969 4.40625 -0.792969 C 4.878906 -0.792969 5.3125 -0.859375 5.699219 -0.996094 C 6.453125 -1.257812 6.828125 -1.730469 6.828125 -2.40625 C 6.828125 -2.914062 6.671875 -3.273438 6.355469 -3.492188 C 6.03125 -3.703125 5.527344 -3.886719 4.84375 -4.042969 L 3.578125 -4.328125 C 2.753906 -4.515625 2.171875 -4.71875 1.828125 -4.945312 C 1.234375 -5.335938 0.9375 -5.914062 0.9375 -6.691406 C 0.9375 -7.527344 1.230469 -8.214844 1.808594 -8.753906 C 2.390625 -9.289062 3.210938 -9.558594 4.273438 -9.558594 C 5.25 -9.558594 6.078125 -9.324219 6.761719 -8.851562 C 7.445312 -8.378906 7.789062 -7.625 7.789062 -6.589844 L 6.601562 -6.589844 C 6.539062 -7.089844 6.402344 -7.472656 6.195312 -7.738281 C 5.808594 -8.226562 5.15625 -8.46875 4.234375 -8.46875 C 3.488281 -8.46875 2.953125 -8.3125 2.628906 -8 C 2.300781 -7.6875 2.140625 -7.320312 2.140625 -6.90625 C 2.140625 -6.449219 2.328125 -6.113281 2.710938 -5.902344 C 2.960938 -5.765625 3.523438 -5.597656 4.40625 -5.394531 L 5.710938 -5.097656 C 6.34375 -4.953125 6.828125 -4.757812 7.171875 -4.507812 C 7.765625 -4.070312 8.0625 -3.4375 8.0625 -2.609375 C 8.0625 -1.578125 7.6875 -0.835938 6.933594 -0.394531 C 6.183594 0.0507812 5.3125 0.273438 4.316406 0.273438 C 3.15625 0.273438 2.25 -0.0234375 1.59375 -0.617188 C 0.9375 -1.203125 0.617188 -2 0.628906 -3.007812 Z M 1.816406 -3.007812 "/>
</g>
<g id="glyph-1-0">
<path d="M 1.347656 -7.800781 L 2.703125 -7.800781 L 2.703125 -3.207031 C 2.691406 -2.527344 2.828125 -2 3.105469 -1.617188 C 3.375 -1.21875 3.863281 -1.019531 4.578125 -1.019531 C 5.304688 -1.019531 5.804688 -1.222656 6.070312 -1.632812 C 6.335938 -2.015625 6.46875 -2.539062 6.46875 -3.207031 L 6.46875 -7.800781 L 7.816406 -7.800781 L 7.816406 -1.890625 C 7.785156 -1.308594 7.953125 -1.019531 8.3125 -1.019531 C 8.449219 -1.019531 8.589844 -1.03125 8.730469 -1.0625 L 8.730469 0 C 8.597656 0.0859375 8.324219 0.136719 7.902344 0.148438 C 7.492188 0.117188 7.195312 0.0195312 7.015625 -0.148438 C 6.824219 -0.308594 6.675781 -0.558594 6.570312 -0.902344 C 6.101562 -0.222656 5.445312 0.125 4.605469 0.148438 C 3.882812 0.148438 3.257812 -0.183594 2.730469 -0.84375 L 2.703125 -0.84375 L 2.703125 2.9375 L 1.347656 2.9375 Z M 1.347656 -7.800781 "/>
</g>
<g id="glyph-2-0">
<path d="M 1.617188 -12.21875 C 1.84375 -12.28125 2.128906 -12.308594 2.464844 -12.308594 C 3.039062 -12.308594 3.472656 -12.160156 3.761719 -11.863281 C 4.042969 -11.558594 4.308594 -11.066406 4.558594 -10.382812 L 7.984375 -1.917969 C 8.066406 -1.75 8.164062 -1.59375 8.277344 -1.445312 C 8.390625 -1.296875 8.542969 -1.21875 8.722656 -1.21875 L 9.148438 -1.21875 L 9.148438 0 L 8.277344 0 C 7.460938 0 6.902344 -0.421875 6.597656 -1.261719 L 4.523438 -6.730469 L 1.960938 0 L 0.308594 0 L 3.792969 -8.550781 L 3.179688 -10.183594 C 2.964844 -10.738281 2.625 -11.003906 2.15625 -10.980469 L 1.617188 -10.980469 Z M 1.617188 -12.21875 "/>
</g>
</g>
</defs>
<rect x="-56" y="-17" width="672" height="204" fill="rgb(100%, 100%, 100%)" fill-opacity="1"/>
<path fill="none" stroke-width="1.6" stroke-linecap="butt" stroke-linejoin="miter" stroke="rgb(0%, 0%, 0%)" stroke-opacity="1" stroke-miterlimit="10" d="M 155 53 L 325 53 L 325 97 L 155 97 "/>
<path fill="none" stroke-width="0.9" stroke-linecap="butt" stroke-linejoin="miter" stroke="rgb(0%, 0%, 0%)" stroke-opacity="1" stroke-miterlimit="10" d="M 296.667969 53 L 296.667969 97 "/>
<path fill="none" stroke-width="0.9" stroke-linecap="butt" stroke-linejoin="miter" stroke="rgb(0%, 0%, 0%)" stroke-opacity="1" stroke-miterlimit="10" d="M 268.332031 53 L 268.332031 97 "/>
<path fill="none" stroke-width="0.9" stroke-linecap="butt" stroke-linejoin="miter" stroke="rgb(0%, 0%, 0%)" stroke-opacity="1" stroke-miterlimit="10" d="M 240 53 L 240 97 "/>
<path fill="none" stroke-width="0.9" stroke-linecap="butt" stroke-linejoin="miter" stroke="rgb(0%, 0%, 0%)" stroke-opacity="1" stroke-miterlimit="10" d="M 211.667969 53 L 211.667969 97 "/>
<path fill="none" stroke-width="0.9" stroke-linecap="butt" stroke-linejoin="miter" stroke="rgb(0%, 0%, 0%)" stroke-opacity="1" stroke-miterlimit="10" d="M 183.332031 53 L 183.332031 97 "/>
<path fill-rule="nonzero" fill="rgb(54.901961%, 54.901961%, 54.901961%)" fill-opacity="1" stroke-width="0.8" stroke-linecap="butt" stroke-linejoin="miter" stroke="rgb(0%, 0%, 0%)" stroke-opacity="1" stroke-miterlimit="10" d="M 324.035156 75 C 324.035156 82.289062 318.125 88.199219 310.832031 88.199219 C 303.542969 88.199219 297.632812 82.289062 297.632812 75 C 297.632812 67.710938 303.542969 61.800781 310.832031 61.800781 C 318.125 61.800781 324.035156 67.710938 324.035156 75 Z M 324.035156 75 "/>
<path fill-rule="nonzero" fill="rgb(54.901961%, 54.901961%, 54.901961%)" fill-opacity="1" stroke-width="0.8" stroke-linecap="butt" stroke-linejoin="miter" stroke="rgb(0%, 0%, 0%)" stroke-opacity="1" stroke-miterlimit="10" d="M 295.699219 75 C 295.699219 82.289062 289.789062 88.199219 282.5 88.199219 C 275.210938 88.199219 269.300781 82.289062 269.300781 75 C 269.300781 67.710938 275.210938 61.800781 282.5 61.800781 C 289.789062 61.800781 295.699219 67.710938 295.699219 75 Z M 295.699219 75 "/>
<path fill-rule="nonzero" fill="rgb(54.901961%, 54.901961%, 54.901961%)" fill-opacity="1" stroke-width="0.8" stroke-linecap="butt" stroke-linejoin="miter" stroke="rgb(0%, 0%, 0%)" stroke-opacity="1" stroke-miterlimit="10" d="M 267.367188 75 C 267.367188 82.289062 261.457031 88.199219 254.167969 88.199219 C 246.875 88.199219 240.964844 82.289062 240.964844 75 C 240.964844 67.710938 246.875 61.800781 254.167969 61.800781 C 261.457031 61.800781 267.367188 67.710938 267.367188 75 Z M 267.367188 75 "/>
<g fill="rgb(0%, 0%, 0%)" fill-opacity="1">
<use xlink:href="#glyph-0-0" x="223.029541" y="113"/>
<use xlink:href="#glyph-0-1" x="230.970459" y="113"/>
<use xlink:href="#glyph-0-0" x="240.358643" y="113"/>
<use xlink:href="#glyph-0-2" x="248.299561" y="113"/>
</g>
<path fill-rule="nonzero" fill="rgb(100%, 100%, 100%)" fill-opacity="1" stroke-width="1.6" stroke-linecap="butt" stroke-linejoin="miter" stroke="rgb(0%, 0%, 0%)" stroke-opacity="1" stroke-miterlimit="10" d="M 411 75 C 411 89.359375 399.359375 101 385 101 C 370.640625 101 359 89.359375 359 75 C 359 60.640625 370.640625 49 385 49 C 399.359375 49 411 60.640625 411 75 Z M 411 75 "/>
<path fill-rule="nonzero" fill="rgb(54.901961%, 54.901961%, 54.901961%)" fill-opacity="1" stroke-width="0.8" stroke-linecap="butt" stroke-linejoin="miter" stroke="rgb(0%, 0%, 0%)" stroke-opacity="1" stroke-miterlimit="10" d="M 396.699219 75 C 396.699219 81.460938 391.460938 86.699219 385 86.699219 C 378.539062 86.699219 373.300781 81.460938 373.300781 75 C 373.300781 68.539062 378.539062 63.300781 385 63.300781 C 391.460938 63.300781 396.699219 68.539062 396.699219 75 Z M 396.699219 75 "/>
<g fill="rgb(0%, 0%, 0%)" fill-opacity="1">
<use xlink:href="#glyph-1-0" x="380.935" y="118.695"/>
</g>
<path fill="none" stroke-width="1" stroke-linecap="butt" stroke-linejoin="miter" stroke="rgb(0%, 0%, 0%)" stroke-opacity="1" stroke-miterlimit="10" d="M 20 75 L 145.761719 75 "/>
<path fill-rule="nonzero" fill="rgb(0%, 0%, 0%)" fill-opacity="1" d="M 145.761719 71.171875 L 155 75 L 145.761719 78.828125 "/>
<g fill="rgb(0%, 0%, 0%)" fill-opacity="1">
<use xlink:href="#glyph-2-0" x="83.2925" y="70.7885"/>
</g>
<path fill="none" stroke-width="1" stroke-linecap="butt" stroke-linejoin="miter" stroke="rgb(0%, 0%, 0%)" stroke-opacity="1" stroke-miterlimit="10" d="M 325 75 L 349.761719 75 "/>
<path fill-rule="nonzero" fill="rgb(0%, 0%, 0%)" fill-opacity="1" d="M 349.761719 71.171875 L 359 75 L 349.761719 78.828125 "/>
<path fill="none" stroke-width="1" stroke-linecap="butt" stroke-linejoin="miter" stroke="rgb(0%, 0%, 0%)" stroke-opacity="1" stroke-miterlimit="10" d="M 411 75 L 510.761719 75 "/>
<path fill-rule="nonzero" fill="rgb(0%, 0%, 0%)" fill-opacity="1" d="M 510.761719 71.171875 L 520 75 L 510.761719 78.828125 "/>
</svg>
