<?xml version="1.0" encoding="UTF-8"?>
<svg xmlns="http://www.w3.org/2000/svg" xmlns:xlink="http://www.w3.org/1999/xlink" width="640" height="320" viewBox="0 0 640 320">
<defs>
<g>
<g id="glyph-733515-0-0">
<path d="M 5.6875 -3.78125 C 5.6875 -2.519531 5.460938 -1.554688 5.015625 -0.890625 C 4.566406 -0.222656 3.910156 0.109375 3.046875 0.109375 C 2.171875 0.109375 1.515625 -0.21875 1.078125 -0.875 C 0.648438 -1.539062 0.4375 -2.507812 0.4375 -3.78125 C 0.4375 -5.082031 0.644531 -6.054688 1.0625 -6.703125 C 1.488281 -7.359375 2.160156 -7.6875 3.078125 -7.6875 C 3.972656 -7.6875 4.628906 -7.359375 5.046875 -6.703125 C 5.472656 -6.046875 5.6875 -5.070312 5.6875 -3.78125 Z M 4.703125 -3.78125 C 4.703125 -4.875 4.578125 -5.664062 4.328125 -6.15625 C 4.078125 -6.644531 3.660156 -6.890625 3.078125 -6.890625 C 2.484375 -6.890625 2.054688 -6.648438 1.796875 -6.171875 C 1.535156 -5.691406 1.40625 -4.894531 1.40625 -3.78125 C 1.40625 -2.707031 1.535156 -1.921875 1.796875 -1.421875 C 2.066406 -0.929688 2.488281 -0.6875 3.0625 -0.6875 C 3.625 -0.6875 4.035156 -0.9375 4.296875 -1.4375 C 4.566406 -1.945312 4.703125 -2.726562 4.703125 -3.78125 Z M 4.703125 -3.78125 "/>
</g>
<g id="glyph-733515-0-1">
<path d="M 0.84375 0 L 0.84375 -0.828125 L 2.765625 -0.828125 L 2.765625 -6.640625 L 1.0625 -5.421875 L 1.0625 -6.34375 L 2.84375 -7.5625 L 3.734375 -7.5625 L 3.734375 -0.828125 L 5.578125 -0.828125 L 5.578125 0 Z M 0.84375 0 "/>
</g>
<g id="glyph-733515-0-2">
<path d="M 0.546875 0 L 0.546875 -0.6875 C 0.734375 -1.101562 0.957031 -1.46875 1.21875 -1.78125 C 1.476562 -2.101562 1.753906 -2.394531 2.046875 -2.65625 C 2.335938 -2.914062 2.625 -3.15625 2.90625 -3.375 C 3.195312 -3.601562 3.457031 -3.828125 3.6875 -4.046875 C 3.914062 -4.273438 4.097656 -4.507812 4.234375 -4.75 C 4.378906 -4.988281 4.453125 -5.265625 4.453125 -5.578125 C 4.453125 -5.992188 4.328125 -6.316406 4.078125 -6.546875 C 3.835938 -6.773438 3.503906 -6.890625 3.078125 -6.890625 C 2.660156 -6.890625 2.316406 -6.773438 2.046875 -6.546875 C 1.785156 -6.328125 1.628906 -6.015625 1.578125 -5.609375 L 0.59375 -5.703125 C 0.664062 -6.304688 0.921875 -6.785156 1.359375 -7.140625 C 1.804688 -7.503906 2.378906 -7.6875 3.078125 -7.6875 C 3.835938 -7.6875 4.421875 -7.503906 4.828125 -7.140625 C 5.242188 -6.773438 5.453125 -6.265625 5.453125 -5.609375 C 5.453125 -5.316406 5.382812 -5.023438 5.25 -4.734375 C 5.113281 -4.441406 4.910156 -4.148438 4.640625 -3.859375 C 4.378906 -3.566406 3.875 -3.117188 3.125 -2.515625 C 2.71875 -2.179688 2.390625 -1.878906 2.140625 -1.609375 C 1.898438 -1.335938 1.722656 -1.078125 1.609375 -0.828125 L 5.5625 -0.828125 L 5.5625 0 Z M 0.546875 0 "/>
</g>
<g id="glyph-733515-0-3">
<path d="M 5.640625 -2.09375 C 5.640625 -1.394531 5.414062 -0.851562 4.96875 -0.46875 C 4.519531 -0.0820312 3.882812 0.109375 3.0625 0.109375 C 2.300781 0.109375 1.691406 -0.0625 1.234375 -0.40625 C 0.773438 -0.75 0.503906 -1.257812 0.421875 -1.9375 L 1.421875 -2.03125 C 1.546875 -1.132812 2.09375 -0.6875 3.0625 -0.6875 C 3.550781 -0.6875 3.929688 -0.804688 4.203125 -1.046875 C 4.484375 -1.285156 4.625 -1.644531 4.625 -2.125 C 4.625 -2.53125 4.460938 -2.847656 4.140625 -3.078125 C 3.828125 -3.316406 3.375 -3.4375 2.78125 -3.4375 L 2.234375 -3.4375 L 2.234375 -4.265625 L 2.765625 -4.265625 C 3.296875 -4.265625 3.707031 -4.378906 4 -4.609375 C 4.289062 -4.847656 4.4375 -5.171875 4.4375 -5.578125 C 4.4375 -5.984375 4.316406 -6.300781 4.078125 -6.53125 C 3.835938 -6.769531 3.484375 -6.890625 3.015625 -6.890625 C 2.585938 -6.890625 2.238281 -6.78125 1.96875 -6.5625 C 1.707031 -6.34375 1.554688 -6.035156 1.515625 -5.640625 L 0.546875 -5.703125 C 0.617188 -6.328125 0.875 -6.8125 1.3125 -7.15625 C 1.757812 -7.507812 2.332031 -7.6875 3.03125 -7.6875 C 3.78125 -7.6875 4.363281 -7.507812 4.78125 -7.15625 C 5.207031 -6.800781 5.421875 -6.304688 5.421875 -5.671875 C 5.421875 -5.191406 5.285156 -4.800781 5.015625 -4.5 C 4.742188 -4.195312 4.351562 -3.992188 3.84375 -3.890625 L 3.84375 -3.859375 C 4.40625 -3.796875 4.84375 -3.601562 5.15625 -3.28125 C 5.476562 -2.96875 5.640625 -2.570312 5.640625 -2.09375 Z M 5.640625 -2.09375 "/>
</g>
<g id="glyph-733515-0-4">
<path d="M 4.734375 -1.71875 L 4.734375 0 L 3.8125 0 L 3.8125 -1.71875 L 0.25 -1.71875 L 0.25 -2.46875 L 3.71875 -7.5625 L 4.734375 -7.5625 L 4.734375 -2.46875 L 5.796875 -2.46875 L 5.796875 -1.71875 Z M 3.8125 -6.484375 C 3.8125 -6.460938 3.765625 -6.363281 3.671875 -6.1875 C 3.578125 -6.019531 3.503906 -5.90625 3.453125 -5.84375 L 1.515625 -2.984375 L 1.234375 -2.578125 L 1.140625 -2.46875 L 3.8125 -2.46875 Z M 3.8125 -6.484375 "/>
</g>
<g id="glyph-733515-0-5">
<path d="M 5.640625 -2.46875 C 5.640625 -1.675781 5.421875 -1.046875 4.984375 -0.578125 C 4.546875 -0.117188 3.945312 0.109375 3.1875 0.109375 C 2.332031 0.109375 1.679688 -0.207031 1.234375 -0.84375 C 0.785156 -1.476562 0.5625 -2.398438 0.5625 -3.609375 C 0.5625 -4.921875 0.796875 -5.925781 1.265625 -6.625 C 1.734375 -7.332031 2.398438 -7.6875 3.265625 -7.6875 C 4.410156 -7.6875 5.128906 -7.171875 5.421875 -6.140625 L 4.5 -5.96875 C 4.3125 -6.582031 3.894531 -6.890625 3.25 -6.890625 C 2.695312 -6.890625 2.269531 -6.632812 1.96875 -6.125 C 1.664062 -5.613281 1.515625 -4.867188 1.515625 -3.890625 C 1.691406 -4.222656 1.9375 -4.472656 2.25 -4.640625 C 2.570312 -4.804688 2.941406 -4.890625 3.359375 -4.890625 C 4.054688 -4.890625 4.609375 -4.671875 5.015625 -4.234375 C 5.429688 -3.796875 5.640625 -3.207031 5.640625 -2.46875 Z M 4.65625 -2.4375 C 4.65625 -2.976562 4.519531 -3.394531 4.25 -3.6875 C 3.976562 -3.988281 3.601562 -4.140625 3.125 -4.140625 C 2.675781 -4.140625 2.3125 -4.007812 2.03125 -3.75 C 1.75 -3.488281 1.609375 -3.128906 1.609375 -2.671875 C 1.609375 -2.078125 1.753906 -1.59375 2.046875 -1.21875 C 2.335938 -0.851562 2.707031 -0.671875 3.15625 -0.671875 C 3.625 -0.671875 3.988281 -0.828125 4.25 -1.140625 C 4.519531 -1.453125 4.65625 -1.882812 4.65625 -2.4375 Z M 4.65625 -2.4375 "/>
</g>
<g id="glyph-733515-0-6">
<path d="M 5.59375 -3.9375 C 5.59375 -2.632812 5.351562 -1.632812 4.875 -0.9375 C 4.40625 -0.238281 3.734375 0.109375 2.859375 0.109375 C 2.265625 0.109375 1.789062 -0.015625 1.4375 -0.265625 C 1.082031 -0.515625 0.828125 -0.914062 0.671875 -1.46875 L 1.59375 -1.609375 C 1.789062 -0.984375 2.21875 -0.671875 2.875 -0.671875 C 3.425781 -0.671875 3.851562 -0.925781 4.15625 -1.4375 C 4.46875 -1.957031 4.628906 -2.695312 4.640625 -3.65625 C 4.492188 -3.332031 4.25 -3.070312 3.90625 -2.875 C 3.5625 -2.675781 3.179688 -2.578125 2.765625 -2.578125 C 2.078125 -2.578125 1.53125 -2.8125 1.125 -3.28125 C 0.71875 -3.75 0.515625 -4.367188 0.515625 -5.140625 C 0.515625 -5.929688 0.734375 -6.550781 1.171875 -7 C 1.617188 -7.457031 2.238281 -7.6875 3.03125 -7.6875 C 3.875 -7.6875 4.507812 -7.375 4.9375 -6.75 C 5.375 -6.125 5.59375 -5.1875 5.59375 -3.9375 Z M 4.546875 -4.875 C 4.546875 -5.476562 4.40625 -5.960938 4.125 -6.328125 C 3.84375 -6.703125 3.46875 -6.890625 3 -6.890625 C 2.53125 -6.890625 2.160156 -6.734375 1.890625 -6.421875 C 1.628906 -6.109375 1.5 -5.679688 1.5 -5.140625 C 1.5 -4.585938 1.628906 -4.148438 1.890625 -3.828125 C 2.160156 -3.503906 2.523438 -3.34375 2.984375 -3.34375 C 3.265625 -3.34375 3.523438 -3.40625 3.765625 -3.53125 C 4.003906 -3.664062 4.191406 -3.847656 4.328125 -4.078125 C 4.472656 -4.304688 4.546875 -4.570312 4.546875 -4.875 Z M 4.546875 -4.875 "/>
</g>
<g id="glyph-733515-0-7">
<path d="M 2.96875 -0.046875 C 2.65625 0.046875 2.332031 0.09375 2 0.09375 C 1.226562 0.09375 0.84375 -0.347656 0.84375 -1.234375 L 0.84375 -5.109375 L 0.171875 -5.109375 L 0.171875 -5.8125 L 0.875 -5.8125 L 1.15625 -7.109375 L 1.8125 -7.109375 L 1.8125 -5.8125 L 2.875 -5.8125 L 2.875 -5.109375 L 1.8125 -5.109375 L 1.8125 -1.4375 C 1.8125 -1.15625 1.851562 -0.957031 1.9375 -0.84375 C 2.03125 -0.738281 2.191406 -0.6875 2.421875 -0.6875 C 2.546875 -0.6875 2.726562 -0.707031 2.96875 -0.75 Z M 2.96875 -0.046875 "/>
</g>
<g id="glyph-733515-0-8">
<path d="M 0.734375 -7.046875 L 0.734375 -7.96875 L 1.703125 -7.96875 L 1.703125 -7.046875 Z M 0.734375 0 L 0.734375 -5.8125 L 1.703125 -5.8125 L 1.703125 0 Z M 0.734375 0 "/>
</g>
<g id="glyph-733515-0-9">
<path d="M 4.125 0 L 4.125 -3.6875 C 4.125 -4.25 4.046875 -4.632812 3.890625 -4.84375 C 3.734375 -5.0625 3.457031 -5.171875 3.0625 -5.171875 C 2.644531 -5.171875 2.316406 -5.015625 2.078125 -4.703125 C 1.835938 -4.390625 1.71875 -3.945312 1.71875 -3.375 L 1.71875 0 L 0.765625 0 L 0.765625 -4.578125 C 0.765625 -5.253906 0.753906 -5.664062 0.734375 -5.8125 L 1.640625 -5.8125 C 1.648438 -5.789062 1.65625 -5.738281 1.65625 -5.65625 C 1.65625 -5.582031 1.65625 -5.492188 1.65625 -5.390625 C 1.664062 -5.296875 1.675781 -5.101562 1.6875 -4.8125 L 1.703125 -4.8125 C 1.910156 -5.226562 2.144531 -5.515625 2.40625 -5.671875 C 2.675781 -5.835938 3.007812 -5.921875 3.40625 -5.921875 C 3.84375 -5.921875 4.1875 -5.832031 4.4375 -5.65625 C 4.695312 -5.476562 4.878906 -5.195312 4.984375 -4.8125 L 5 -4.8125 C 5.195312 -5.207031 5.4375 -5.488281 5.71875 -5.65625 C 6.007812 -5.832031 6.351562 -5.921875 6.75 -5.921875 C 7.34375 -5.921875 7.769531 -5.757812 8.03125 -5.4375 C 8.300781 -5.125 8.4375 -4.601562 8.4375 -3.875 L 8.4375 0 L 7.484375 0 L 7.484375 -3.6875 C 7.484375 -4.25 7.40625 -4.632812 7.25 -4.84375 C 7.09375 -5.0625 6.816406 -5.171875 6.421875 -5.171875 C 5.992188 -5.171875 5.660156 -5.015625 5.421875 -4.703125 C 5.191406 -4.390625 5.078125 -3.945312 5.078125 -3.375 L 5.078125 0 Z M 4.125 0 "/>
</g>
<g id="glyph-733515-0-10">
<path d="M 1.484375 -2.703125 C 1.484375 -2.035156 1.617188 -1.519531 1.890625 -1.15625 C 2.171875 -0.800781 2.578125 -0.625 3.109375 -0.625 C 3.523438 -0.625 3.859375 -0.707031 4.109375 -0.875 C 4.359375 -1.039062 4.53125 -1.253906 4.625 -1.515625 L 5.46875 -1.265625 C 5.125 -0.347656 4.335938 0.109375 3.109375 0.109375 C 2.242188 0.109375 1.585938 -0.144531 1.140625 -0.65625 C 0.691406 -1.164062 0.46875 -1.925781 0.46875 -2.9375 C 0.46875 -3.90625 0.691406 -4.644531 1.140625 -5.15625 C 1.585938 -5.664062 2.226562 -5.921875 3.0625 -5.921875 C 4.769531 -5.921875 5.625 -4.890625 5.625 -2.828125 L 5.625 -2.703125 Z M 4.625 -3.4375 C 4.570312 -4.050781 4.414062 -4.5 4.15625 -4.78125 C 3.90625 -5.0625 3.535156 -5.203125 3.046875 -5.203125 C 2.578125 -5.203125 2.207031 -5.046875 1.9375 -4.734375 C 1.664062 -4.421875 1.519531 -3.988281 1.5 -3.4375 Z M 4.625 -3.4375 "/>
</g>
<g id="glyph-733515-0-11">
<path d="M 0.765625 0 L 0.765625 -4.453125 C 0.765625 -4.867188 0.753906 -5.320312 0.734375 -5.8125 L 1.640625 -5.8125 C 1.671875 -5.15625 1.6875 -4.757812 1.6875 -4.625 L 1.703125 -4.625 C 1.859375 -5.125 2.035156 -5.460938 2.234375 -5.640625 C 2.441406 -5.828125 2.726562 -5.921875 3.09375 -5.921875 C 3.21875 -5.921875 3.347656 -5.898438 3.484375 -5.859375 L 3.484375 -4.984375 C 3.347656 -5.015625 3.175781 -5.03125 2.96875 -5.03125 C 2.5625 -5.03125 2.253906 -4.859375 2.046875 -4.515625 C 1.835938 -4.171875 1.734375 -3.675781 1.734375 -3.03125 L 1.734375 0 Z M 0.765625 0 "/>
</g>
<g id="glyph-733515-0-12">
<path d="M 1.6875 -5.8125 L 1.6875 -2.125 C 1.6875 -1.738281 1.722656 -1.441406 1.796875 -1.234375 C 1.867188 -1.023438 1.988281 -0.875 2.15625 -0.78125 C 2.320312 -0.6875 2.566406 -0.640625 2.890625 -0.640625 C 3.347656 -0.640625 3.710938 -0.796875 3.984375 -1.109375 C 4.253906 -1.429688 4.390625 -1.875 4.390625 -2.4375 L 4.390625 -5.8125 L 5.359375 -5.8125 L 5.359375 -1.234375 C 5.359375 -0.554688 5.367188 -0.144531 5.390625 0 L 4.46875 0 C 4.46875 -0.0195312 4.460938 -0.0664062 4.453125 -0.140625 C 4.453125 -0.222656 4.445312 -0.3125 4.4375 -0.40625 C 4.4375 -0.507812 4.4375 -0.707031 4.4375 -1 L 4.421875 -1 C 4.191406 -0.59375 3.929688 -0.304688 3.640625 -0.140625 C 3.347656 0.0234375 2.988281 0.109375 2.5625 0.109375 C 1.914062 0.109375 1.445312 -0.046875 1.15625 -0.359375 C 0.863281 -0.679688 0.71875 -1.207031 0.71875 -1.9375 L 0.71875 -5.8125 Z M 1.6875 -5.8125 "/>
</g>
<g id="glyph-733515-0-13">
<path d="M 4.4375 0 L 4.4375 -3.6875 C 4.4375 -4.070312 4.394531 -4.367188 4.3125 -4.578125 C 4.238281 -4.785156 4.117188 -4.9375 3.953125 -5.03125 C 3.796875 -5.125 3.554688 -5.171875 3.234375 -5.171875 C 2.765625 -5.171875 2.394531 -5.007812 2.125 -4.6875 C 1.863281 -4.375 1.734375 -3.9375 1.734375 -3.375 L 1.734375 0 L 0.765625 0 L 0.765625 -4.578125 C 0.765625 -5.253906 0.753906 -5.664062 0.734375 -5.8125 L 1.640625 -5.8125 C 1.648438 -5.789062 1.65625 -5.738281 1.65625 -5.65625 C 1.65625 -5.582031 1.65625 -5.492188 1.65625 -5.390625 C 1.664062 -5.296875 1.675781 -5.101562 1.6875 -4.8125 L 1.703125 -4.8125 C 1.921875 -5.21875 2.175781 -5.503906 2.46875 -5.671875 C 2.757812 -5.835938 3.125 -5.921875 3.5625 -5.921875 C 4.195312 -5.921875 4.660156 -5.757812 4.953125 -5.4375 C 5.253906 -5.125 5.40625 -4.601562 5.40625 -3.875 L 5.40625 0 Z M 4.4375 0 "/>
</g>
<g id="glyph-733515-0-14">
<path d="M 2.9375 2.28125 C 2.3125 2.28125 1.804688 2.15625 1.421875 1.90625 C 1.046875 1.65625 0.804688 1.300781 0.703125 0.84375 L 1.671875 0.703125 C 1.734375 0.972656 1.875 1.179688 2.09375 1.328125 C 2.320312 1.472656 2.613281 1.546875 2.96875 1.546875 C 3.9375 1.546875 4.421875 0.984375 4.421875 -0.140625 L 4.421875 -1.078125 L 4.40625 -1.078125 C 4.21875 -0.703125 3.960938 -0.421875 3.640625 -0.234375 C 3.328125 -0.046875 2.957031 0.046875 2.53125 0.046875 C 1.820312 0.046875 1.300781 -0.1875 0.96875 -0.65625 C 0.632812 -1.132812 0.46875 -1.878906 0.46875 -2.890625 C 0.46875 -3.921875 0.644531 -4.679688 1 -5.171875 C 1.363281 -5.660156 1.910156 -5.90625 2.640625 -5.90625 C 3.054688 -5.90625 3.414062 -5.8125 3.71875 -5.625 C 4.019531 -5.4375 4.253906 -5.164062 4.421875 -4.8125 C 4.421875 -4.925781 4.425781 -5.113281 4.4375 -5.375 C 4.457031 -5.644531 4.472656 -5.789062 4.484375 -5.8125 L 5.40625 -5.8125 C 5.382812 -5.613281 5.375 -5.210938 5.375 -4.609375 L 5.375 -0.171875 C 5.375 1.460938 4.5625 2.28125 2.9375 2.28125 Z M 4.421875 -2.90625 C 4.421875 -3.375 4.351562 -3.78125 4.21875 -4.125 C 4.09375 -4.46875 3.910156 -4.726562 3.671875 -4.90625 C 3.441406 -5.09375 3.175781 -5.1875 2.875 -5.1875 C 2.382812 -5.1875 2.023438 -5.003906 1.796875 -4.640625 C 1.578125 -4.285156 1.46875 -3.707031 1.46875 -2.90625 C 1.46875 -2.113281 1.570312 -1.539062 1.78125 -1.1875 C 1.988281 -0.84375 2.347656 -0.671875 2.859375 -0.671875 C 3.160156 -0.671875 3.429688 -0.757812 3.671875 -0.9375 C 3.910156 -1.113281 4.09375 -1.367188 4.21875 -1.703125 C 4.351562 -2.046875 4.421875 -2.445312 4.421875 -2.90625 Z M 4.421875 -2.90625 "/>
</g>
<g id="glyph-733515-0-15">
</g>
<g id="glyph-733515-0-16">
<path d="M 2.21875 0.109375 C 1.632812 0.109375 1.195312 -0.0390625 0.90625 -0.34375 C 0.613281 -0.65625 0.46875 -1.082031 0.46875 -1.625 C 0.46875 -2.226562 0.664062 -2.6875 1.0625 -3 C 1.457031 -3.320312 2.09375 -3.5 2.96875 -3.53125 L 4.28125 -3.546875 L 4.28125 -3.859375 C 4.28125 -4.335938 4.175781 -4.675781 3.96875 -4.875 C 3.769531 -5.082031 3.457031 -5.1875 3.03125 -5.1875 C 2.601562 -5.1875 2.289062 -5.113281 2.09375 -4.96875 C 1.894531 -4.820312 1.773438 -4.585938 1.734375 -4.265625 L 0.71875 -4.34375 C 0.882812 -5.394531 1.664062 -5.921875 3.0625 -5.921875 C 3.789062 -5.921875 4.335938 -5.753906 4.703125 -5.421875 C 5.078125 -5.085938 5.265625 -4.601562 5.265625 -3.96875 L 5.265625 -1.46875 C 5.265625 -1.175781 5.300781 -0.957031 5.375 -0.8125 C 5.445312 -0.664062 5.585938 -0.59375 5.796875 -0.59375 C 5.890625 -0.59375 6 -0.609375 6.125 -0.640625 L 6.125 -0.03125 C 5.875 0.0195312 5.625 0.046875 5.375 0.046875 C 5.007812 0.046875 4.742188 -0.046875 4.578125 -0.234375 C 4.421875 -0.421875 4.332031 -0.710938 4.3125 -1.109375 L 4.28125 -1.109375 C 4.03125 -0.671875 3.738281 -0.359375 3.40625 -0.171875 C 3.082031 0.015625 2.6875 0.109375 2.21875 0.109375 Z M 2.4375 -0.625 C 2.789062 -0.625 3.101562 -0.703125 3.375 -0.859375 C 3.65625 -1.015625 3.875 -1.234375 4.03125 -1.515625 C 4.195312 -1.796875 4.28125 -2.085938 4.28125 -2.390625 L 4.28125 -2.875 L 3.21875 -2.84375 C 2.769531 -2.84375 2.425781 -2.796875 2.1875 -2.703125 C 1.957031 -2.617188 1.78125 -2.488281 1.65625 -2.3125 C 1.53125 -2.132812 1.46875 -1.898438 1.46875 -1.609375 C 1.46875 -1.296875 1.550781 -1.050781 1.71875 -0.875 C 1.882812 -0.707031 2.125 -0.625 2.4375 -0.625 Z M 2.4375 -0.625 "/>
</g>
<g id="glyph-733515-0-17">
<path d="M 3.296875 0 L 2.15625 0 L 0.03125 -5.8125 L 1.0625 -5.8125 L 2.34375 -2.03125 C 2.394531 -1.882812 2.519531 -1.457031 2.71875 -0.75 L 2.90625 -1.390625 L 3.109375 -2.015625 L 4.4375 -5.8125 L 5.46875 -5.8125 Z M 3.296875 0 "/>
</g>
<g id="glyph-733515-0-18">
<path d="M 5.65625 -2.90625 C 5.65625 -1.894531 5.429688 -1.140625 4.984375 -0.640625 C 4.535156 -0.140625 3.882812 0.109375 3.03125 0.109375 C 2.1875 0.109375 1.546875 -0.144531 1.109375 -0.65625 C 0.679688 -1.175781 0.46875 -1.925781 0.46875 -2.90625 C 0.46875 -4.914062 1.332031 -5.921875 3.0625 -5.921875 C 3.957031 -5.921875 4.613281 -5.675781 5.03125 -5.1875 C 5.445312 -4.695312 5.65625 -3.9375 5.65625 -2.90625 Z M 4.640625 -2.90625 C 4.640625 -3.707031 4.519531 -4.289062 4.28125 -4.65625 C 4.039062 -5.019531 3.640625 -5.203125 3.078125 -5.203125 C 2.515625 -5.203125 2.109375 -5.015625 1.859375 -4.640625 C 1.609375 -4.273438 1.484375 -3.695312 1.484375 -2.90625 C 1.484375 -2.144531 1.601562 -1.570312 1.84375 -1.1875 C 2.09375 -0.800781 2.488281 -0.609375 3.03125 -0.609375 C 3.601562 -0.609375 4.015625 -0.789062 4.265625 -1.15625 C 4.515625 -1.53125 4.640625 -2.113281 4.640625 -2.90625 Z M 4.640625 -2.90625 "/>
</g>
<g id="glyph-733515-0-19">
<path d="M 1.9375 -5.109375 L 1.9375 0 L 0.96875 0 L 0.96875 -5.109375 L 0.15625 -5.109375 L 0.15625 -5.8125 L 0.96875 -5.8125 L 0.96875 -6.46875 C 0.96875 -7 1.082031 -7.378906 1.3125 -7.609375 C 1.550781 -7.835938 1.910156 -7.953125 2.390625 -7.953125 C 2.660156 -7.953125 2.890625 -7.929688 3.078125 -7.890625 L 3.078125 -7.15625 C 2.910156 -7.1875 2.765625 -7.203125 2.640625 -7.203125 C 2.390625 -7.203125 2.207031 -7.140625 2.09375 -7.015625 C 1.988281 -6.890625 1.9375 -6.660156 1.9375 -6.328125 L 1.9375 -5.8125 L 3.078125 -5.8125 L 3.078125 -5.109375 Z M 1.9375 -5.109375 "/>
</g>
<g id="glyph-733515-0-20">
<path d="M 5.8125 0 L 1.765625 -6.453125 L 1.78125 -5.921875 L 1.8125 -5.03125 L 1.8125 0 L 0.90625 0 L 0.90625 -7.5625 L 2.09375 -7.5625 L 6.1875 -1.078125 C 6.144531 -1.773438 6.125 -2.285156 6.125 -2.609375 L 6.125 -7.5625 L 7.046875 -7.5625 L 7.046875 0 Z M 5.8125 0 "/>
</g>
<g id="glyph-733515-1-0">
<path d="M 0.984375 0 L 0.984375 -8.25 L 2.109375 -8.25 L 2.109375 -0.921875 L 6.28125 -0.921875 L 6.28125 0 Z M 0.984375 0 "/>
</g>
<g id="glyph-733515-1-1">
</g>
<g id="glyph-733515-1-2">
<path d="M 0.59375 -5.015625 L 0.59375 -5.890625 L 6.421875 -5.890625 L 6.421875 -5.015625 Z M 0.59375 -2.015625 L 0.59375 -2.890625 L 6.421875 -2.890625 L 6.421875 -2.015625 Z M 0.59375 -2.015625 "/>
</g>
<g id="glyph-733515-1-3">
<path d="M 6.109375 -4.296875 C 6.109375 -2.878906 5.847656 -1.785156 5.328125 -1.015625 C 4.804688 -0.253906 4.070312 0.125 3.125 0.125 C 2.476562 0.125 1.957031 -0.0078125 1.5625 -0.28125 C 1.175781 -0.5625 0.898438 -1.003906 0.734375 -1.609375 L 1.734375 -1.765625 C 1.953125 -1.078125 2.421875 -0.734375 3.140625 -0.734375 C 3.742188 -0.734375 4.210938 -1.015625 4.546875 -1.578125 C 4.878906 -2.140625 5.050781 -2.941406 5.0625 -3.984375 C 4.90625 -3.628906 4.632812 -3.34375 4.25 -3.125 C 3.875 -2.914062 3.460938 -2.8125 3.015625 -2.8125 C 2.273438 -2.8125 1.679688 -3.066406 1.234375 -3.578125 C 0.785156 -4.085938 0.5625 -4.765625 0.5625 -5.609375 C 0.5625 -6.460938 0.800781 -7.132812 1.28125 -7.625 C 1.769531 -8.125 2.445312 -8.375 3.3125 -8.375 C 4.226562 -8.375 4.921875 -8.035156 5.390625 -7.359375 C 5.867188 -6.679688 6.109375 -5.660156 6.109375 -4.296875 Z M 4.953125 -5.3125 C 4.953125 -5.976562 4.800781 -6.515625 4.5 -6.921875 C 4.195312 -7.328125 3.789062 -7.53125 3.28125 -7.53125 C 2.769531 -7.53125 2.367188 -7.351562 2.078125 -7 C 1.785156 -6.65625 1.640625 -6.191406 1.640625 -5.609375 C 1.640625 -5.003906 1.785156 -4.523438 2.078125 -4.171875 C 2.367188 -3.828125 2.765625 -3.65625 3.265625 -3.65625 C 3.566406 -3.65625 3.847656 -3.722656 4.109375 -3.859375 C 4.367188 -3.992188 4.570312 -4.1875 4.71875 -4.4375 C 4.875 -4.695312 4.953125 -4.988281 4.953125 -5.3125 Z M 4.953125 -5.3125 "/>
</g>
<g id="glyph-733515-1-4">
<path d="M 3.25 -0.046875 C 2.894531 0.046875 2.539062 0.09375 2.1875 0.09375 C 1.34375 0.09375 0.921875 -0.382812 0.921875 -1.34375 L 0.921875 -5.578125 L 0.1875 -5.578125 L 0.1875 -6.34375 L 0.953125 -6.34375 L 1.265625 -7.765625 L 1.96875 -7.765625 L 1.96875 -6.34375 L 3.140625 -6.34375 L 3.140625 -5.578125 L 1.96875 -5.578125 L 1.96875 -1.578125 C 1.96875 -1.265625 2.015625 -1.046875 2.109375 -0.921875 C 2.210938 -0.804688 2.390625 -0.75 2.640625 -0.75 C 2.773438 -0.75 2.976562 -0.773438 3.25 -0.828125 Z M 3.25 -0.046875 "/>
</g>
<g id="glyph-733515-1-5">
<path d="M 1.859375 -5.25 C 2.085938 -5.664062 2.359375 -5.96875 2.671875 -6.15625 C 2.992188 -6.351562 3.398438 -6.453125 3.890625 -6.453125 C 4.578125 -6.453125 5.082031 -6.28125 5.40625 -5.9375 C 5.726562 -5.601562 5.890625 -5.03125 5.890625 -4.21875 L 5.890625 0 L 4.828125 0 L 4.828125 -4.015625 C 4.828125 -4.460938 4.785156 -4.796875 4.703125 -5.015625 C 4.628906 -5.234375 4.5 -5.390625 4.3125 -5.484375 C 4.125 -5.585938 3.863281 -5.640625 3.53125 -5.640625 C 3.03125 -5.640625 2.628906 -5.46875 2.328125 -5.125 C 2.035156 -4.78125 1.890625 -4.316406 1.890625 -3.734375 L 1.890625 0 L 0.828125 0 L 0.828125 -8.703125 L 1.890625 -8.703125 L 1.890625 -6.4375 C 1.890625 -6.195312 1.878906 -5.945312 1.859375 -5.6875 C 1.847656 -5.4375 1.84375 -5.289062 1.84375 -5.25 Z M 1.859375 -5.25 "/>
</g>
<g id="glyph-733515-1-6">
<path d="M 0.828125 0 L 0.828125 -4.859375 C 0.828125 -5.304688 0.816406 -5.800781 0.796875 -6.34375 L 1.796875 -6.34375 C 1.828125 -5.625 1.84375 -5.191406 1.84375 -5.046875 L 1.859375 -5.046875 C 2.023438 -5.585938 2.21875 -5.957031 2.4375 -6.15625 C 2.65625 -6.351562 2.96875 -6.453125 3.375 -6.453125 C 3.507812 -6.453125 3.648438 -6.4375 3.796875 -6.40625 L 3.796875 -5.4375 C 3.660156 -5.46875 3.472656 -5.484375 3.234375 -5.484375 C 2.796875 -5.484375 2.460938 -5.296875 2.234375 -4.921875 C 2.003906 -4.546875 1.890625 -4.007812 1.890625 -3.3125 L 1.890625 0 Z M 0.828125 0 "/>
</g>
<g id="glyph-733515-1-7">
<path d="M 1.625 -2.953125 C 1.625 -2.222656 1.769531 -1.660156 2.0625 -1.265625 C 2.363281 -0.867188 2.804688 -0.671875 3.390625 -0.671875 C 3.847656 -0.671875 4.210938 -0.757812 4.484375 -0.9375 C 4.765625 -1.125 4.953125 -1.359375 5.046875 -1.640625 L 5.96875 -1.390625 C 5.59375 -0.378906 4.734375 0.125 3.390625 0.125 C 2.453125 0.125 1.738281 -0.15625 1.25 -0.71875 C 0.757812 -1.28125 0.515625 -2.113281 0.515625 -3.21875 C 0.515625 -4.257812 0.757812 -5.054688 1.25 -5.609375 C 1.738281 -6.171875 2.4375 -6.453125 3.34375 -6.453125 C 5.207031 -6.453125 6.140625 -5.332031 6.140625 -3.09375 L 6.140625 -2.953125 Z M 5.046875 -3.75 C 4.992188 -4.425781 4.828125 -4.914062 4.546875 -5.21875 C 4.265625 -5.519531 3.859375 -5.671875 3.328125 -5.671875 C 2.816406 -5.671875 2.410156 -5.5 2.109375 -5.15625 C 1.816406 -4.820312 1.65625 -4.351562 1.625 -3.75 Z M 5.046875 -3.75 "/>
</g>
<g id="glyph-733515-1-8">
<path d="M 5.5625 -1.75 C 5.5625 -1.15625 5.335938 -0.691406 4.890625 -0.359375 C 4.441406 -0.0351562 3.8125 0.125 3 0.125 C 2.207031 0.125 1.597656 -0.00390625 1.171875 -0.265625 C 0.742188 -0.523438 0.460938 -0.929688 0.328125 -1.484375 L 1.265625 -1.671875 C 1.359375 -1.328125 1.546875 -1.078125 1.828125 -0.921875 C 2.109375 -0.765625 2.5 -0.6875 3 -0.6875 C 3.53125 -0.6875 3.921875 -0.765625 4.171875 -0.921875 C 4.421875 -1.085938 4.546875 -1.335938 4.546875 -1.671875 C 4.546875 -1.921875 4.457031 -2.125 4.28125 -2.28125 C 4.113281 -2.4375 3.835938 -2.566406 3.453125 -2.671875 L 2.703125 -2.859375 C 2.085938 -3.015625 1.648438 -3.164062 1.390625 -3.3125 C 1.140625 -3.46875 0.941406 -3.65625 0.796875 -3.875 C 0.660156 -4.09375 0.59375 -4.359375 0.59375 -4.671875 C 0.59375 -5.242188 0.796875 -5.679688 1.203125 -5.984375 C 1.617188 -6.285156 2.21875 -6.4375 3 -6.4375 C 3.707031 -6.4375 4.265625 -6.3125 4.671875 -6.0625 C 5.085938 -5.820312 5.347656 -5.429688 5.453125 -4.890625 L 4.5 -4.765625 C 4.445312 -5.046875 4.289062 -5.257812 4.03125 -5.40625 C 3.78125 -5.5625 3.4375 -5.640625 3 -5.640625 C 2.53125 -5.640625 2.179688 -5.566406 1.953125 -5.421875 C 1.722656 -5.273438 1.609375 -5.054688 1.609375 -4.765625 C 1.609375 -4.585938 1.65625 -4.441406 1.75 -4.328125 C 1.84375 -4.210938 1.976562 -4.113281 2.15625 -4.03125 C 2.34375 -3.945312 2.734375 -3.832031 3.328125 -3.6875 C 3.890625 -3.539062 4.289062 -3.410156 4.53125 -3.296875 C 4.78125 -3.179688 4.972656 -3.050781 5.109375 -2.90625 C 5.253906 -2.757812 5.363281 -2.585938 5.4375 -2.390625 C 5.519531 -2.203125 5.5625 -1.988281 5.5625 -1.75 Z M 5.5625 -1.75 "/>
</g>
<g id="glyph-733515-1-9">
<path d="M 4.8125 -1.015625 C 4.613281 -0.609375 4.351562 -0.316406 4.03125 -0.140625 C 3.707031 0.0351562 3.3125 0.125 2.84375 0.125 C 2.039062 0.125 1.445312 -0.144531 1.0625 -0.6875 C 0.6875 -1.226562 0.5 -2.046875 0.5 -3.140625 C 0.5 -5.347656 1.28125 -6.453125 2.84375 -6.453125 C 3.320312 -6.453125 3.71875 -6.363281 4.03125 -6.1875 C 4.351562 -6.019531 4.613281 -5.742188 4.8125 -5.359375 L 4.828125 -5.359375 L 4.8125 -6.0625 L 4.8125 -8.703125 L 5.859375 -8.703125 L 5.859375 -1.3125 C 5.859375 -0.644531 5.875 -0.207031 5.90625 0 L 4.890625 0 C 4.878906 -0.0625 4.863281 -0.207031 4.84375 -0.4375 C 4.832031 -0.664062 4.828125 -0.859375 4.828125 -1.015625 Z M 1.609375 -3.171875 C 1.609375 -2.285156 1.722656 -1.648438 1.953125 -1.265625 C 2.191406 -0.890625 2.578125 -0.703125 3.109375 -0.703125 C 3.703125 -0.703125 4.132812 -0.90625 4.40625 -1.3125 C 4.675781 -1.726562 4.8125 -2.375 4.8125 -3.25 C 4.8125 -4.082031 4.675781 -4.691406 4.40625 -5.078125 C 4.132812 -5.472656 3.707031 -5.671875 3.125 -5.671875 C 2.59375 -5.671875 2.207031 -5.472656 1.96875 -5.078125 C 1.726562 -4.691406 1.609375 -4.054688 1.609375 -3.171875 Z M 1.609375 -3.171875 "/>
</g>
<g id="glyph-733515-1-10">
<path d="M 2.25 -1.28125 L 2.25 -0.296875 C 2.25 0.117188 2.210938 0.460938 2.140625 0.734375 C 2.066406 1.015625 1.953125 1.28125 1.796875 1.53125 L 1.078125 1.53125 C 1.441406 1 1.625 0.488281 1.625 0 L 1.109375 0 L 1.109375 -1.28125 Z M 2.25 -1.28125 "/>
</g>
<g id="glyph-733515-1-11">
<path d="M 6.171875 -3.171875 C 6.171875 -2.066406 5.925781 -1.238281 5.4375 -0.6875 C 4.945312 -0.144531 4.238281 0.125 3.3125 0.125 C 2.382812 0.125 1.679688 -0.15625 1.203125 -0.71875 C 0.734375 -1.289062 0.5 -2.109375 0.5 -3.171875 C 0.5 -5.359375 1.445312 -6.453125 3.34375 -6.453125 C 4.3125 -6.453125 5.023438 -6.1875 5.484375 -5.65625 C 5.941406 -5.125 6.171875 -4.296875 6.171875 -3.171875 Z M 5.0625 -3.171875 C 5.0625 -4.046875 4.929688 -4.679688 4.671875 -5.078125 C 4.410156 -5.472656 3.972656 -5.671875 3.359375 -5.671875 C 2.742188 -5.671875 2.296875 -5.46875 2.015625 -5.0625 C 1.742188 -4.664062 1.609375 -4.035156 1.609375 -3.171875 C 1.609375 -2.335938 1.742188 -1.707031 2.015625 -1.28125 C 2.285156 -0.863281 2.710938 -0.65625 3.296875 -0.65625 C 3.929688 -0.65625 4.382812 -0.859375 4.65625 -1.265625 C 4.925781 -1.671875 5.0625 -2.304688 5.0625 -3.171875 Z M 5.0625 -3.171875 "/>
</g>
<g id="glyph-733515-1-12">
<path d="M 4.828125 0 L 4.828125 -4.015625 C 4.828125 -4.429688 4.785156 -4.753906 4.703125 -4.984375 C 4.628906 -5.222656 4.5 -5.390625 4.3125 -5.484375 C 4.132812 -5.585938 3.875 -5.640625 3.53125 -5.640625 C 3.019531 -5.640625 2.617188 -5.460938 2.328125 -5.109375 C 2.035156 -4.765625 1.890625 -4.285156 1.890625 -3.671875 L 1.890625 0 L 0.828125 0 L 0.828125 -4.984375 C 0.828125 -5.722656 0.816406 -6.175781 0.796875 -6.34375 L 1.796875 -6.34375 C 1.796875 -6.320312 1.796875 -6.265625 1.796875 -6.171875 C 1.804688 -6.085938 1.8125 -5.988281 1.8125 -5.875 C 1.820312 -5.769531 1.832031 -5.5625 1.84375 -5.25 L 1.859375 -5.25 C 2.097656 -5.6875 2.375 -5.992188 2.6875 -6.171875 C 3.007812 -6.359375 3.410156 -6.453125 3.890625 -6.453125 C 4.578125 -6.453125 5.082031 -6.28125 5.40625 -5.9375 C 5.726562 -5.59375 5.890625 -5.019531 5.890625 -4.21875 L 5.890625 0 Z M 4.828125 0 "/>
</g>
<g id="glyph-733515-1-13">
<path d="M 4.5 0 L 4.5 -4.015625 C 4.5 -4.628906 4.414062 -5.050781 4.25 -5.28125 C 4.082031 -5.519531 3.78125 -5.640625 3.34375 -5.640625 C 2.894531 -5.640625 2.535156 -5.46875 2.265625 -5.125 C 2.003906 -4.78125 1.875 -4.296875 1.875 -3.671875 L 1.875 0 L 0.828125 0 L 0.828125 -4.984375 C 0.828125 -5.722656 0.816406 -6.175781 0.796875 -6.34375 L 1.796875 -6.34375 C 1.796875 -6.320312 1.796875 -6.265625 1.796875 -6.171875 C 1.804688 -6.085938 1.8125 -5.988281 1.8125 -5.875 C 1.820312 -5.769531 1.832031 -5.5625 1.84375 -5.25 L 1.859375 -5.25 C 2.085938 -5.707031 2.347656 -6.019531 2.640625 -6.1875 C 2.929688 -6.363281 3.285156 -6.453125 3.703125 -6.453125 C 4.191406 -6.453125 4.570312 -6.359375 4.84375 -6.171875 C 5.125 -5.984375 5.320312 -5.675781 5.4375 -5.25 L 5.453125 -5.25 C 5.671875 -5.675781 5.929688 -5.984375 6.234375 -6.171875 C 6.546875 -6.359375 6.925781 -6.453125 7.375 -6.453125 C 8.007812 -6.453125 8.472656 -6.28125 8.765625 -5.9375 C 9.054688 -5.59375 9.203125 -5.019531 9.203125 -4.21875 L 9.203125 0 L 8.15625 0 L 8.15625 -4.015625 C 8.15625 -4.628906 8.070312 -5.050781 7.90625 -5.28125 C 7.738281 -5.519531 7.4375 -5.640625 7 -5.640625 C 6.539062 -5.640625 6.179688 -5.46875 5.921875 -5.125 C 5.671875 -4.789062 5.546875 -4.304688 5.546875 -3.671875 L 5.546875 0 Z M 4.5 0 "/>
</g>
<g id="glyph-733515-1-14">
<path d="M 0.8125 0 L 0.8125 -8.703125 L 1.859375 -8.703125 L 1.859375 0 Z M 0.8125 0 "/>
</g>
</g>
</defs>
<rect x="-64" y="-32" width="768" height="384" fill="rgb(100%, 100%, 100%)" fill-opacity="1"/>
<path fill="none" stroke-width="1" stroke-linecap="butt" stroke-linejoin="miter" stroke="rgb(60%, 60%, 60%)" stroke-opacity="1" stroke-miterlimit="10" d="M 50 280 L 570 280 "/>
<path fill="none" stroke-width="1" stroke-linecap="butt" stroke-linejoin="miter" stroke="rgb(60%, 60%, 60%)" stroke-opacity="1" stroke-miterlimit="10" d="M 50 280 L 50 50 "/>
<g fill="rgb(40%, 40%, 40%)" fill-opacity="1">
<use xlink:href="#glyph-733515-0-0" x="46.941162" y="296"/>
</g>
<g fill="rgb(40%, 40%, 40%)" fill-opacity="1">
<use xlink:href="#glyph-733515-0-1" x="167.764648" y="296"/>
<use xlink:href="#glyph-733515-0-0" x="173.882324" y="296"/>
<use xlink:href="#glyph-733515-0-0" x="180" y="296"/>
<use xlink:href="#glyph-733515-0-0" x="186.117676" y="296"/>
</g>
<g fill="rgb(40%, 40%, 40%)" fill-opacity="1">
<use xlink:href="#glyph-733515-0-2" x="297.764648" y="296"/>
<use xlink:href="#glyph-733515-0-0" x="303.882324" y="296"/>
<use xlink:href="#glyph-733515-0-0" x="310" y="296"/>
<use xlink:href="#glyph-733515-0-0" x="316.117676" y="296"/>
</g>
<g fill="rgb(40%, 40%, 40%)" fill-opacity="1">
<use xlink:href="#glyph-733515-0-3" x="427.764648" y="296"/>
<use xlink:href="#glyph-733515-0-0" x="433.882324" y="296"/>
<use xlink:href="#glyph-733515-0-0" x="440" y="296"/>
<use xlink:href="#glyph-733515-0-0" x="446.117676" y="296"/>
</g>
<g fill="rgb(40%, 40%, 40%)" fill-opacity="1">
<use xlink:href="#glyph-733515-0-4" x="557.764648" y="296"/>
<use xlink:href="#glyph-733515-0-0" x="563.882324" y="296"/>
<use xlink:href="#glyph-733515-0-0" x="570" y="296"/>
<use xlink:href="#glyph-733515-0-0" x="576.117676" y="296"/>
</g>
<g fill="rgb(40%, 40%, 40%)" fill-opacity="1">
<use xlink:href="#glyph-733515-0-0" x="36.312012" y="284"/>
</g>
<g fill="rgb(40%, 40%, 40%)" fill-opacity="1">
<use xlink:href="#glyph-733515-0-3" x="36.365723" y="226.5"/>
</g>
<g fill="rgb(40%, 40%, 40%)" fill-opacity="1">
<use xlink:href="#glyph-733515-0-5" x="36.365723" y="169"/>
</g>
<g fill="rgb(40%, 40%, 40%)" fill-opacity="1">
<use xlink:href="#glyph-733515-0-6" x="36.40332" y="111.5"/>
</g>
<g fill="rgb(40%, 40%, 40%)" fill-opacity="1">
<use xlink:href="#glyph-733515-0-1" x="30.317871" y="54"/>
<use xlink:href="#glyph-733515-0-2" x="36.435547" y="54"/>
</g>
<g fill="rgb(40%, 40%, 40%)" fill-opacity="1">
<use xlink:href="#glyph-733515-0-7" x="299.609619" y="314"/>
<use xlink:href="#glyph-733515-0-8" x="302.665771" y="314"/>
<use xlink:href="#glyph-733515-0-9" x="305.109619" y="314"/>
<use xlink:href="#glyph-733515-0-10" x="314.272705" y="314"/>
</g>
<g fill="rgb(40%, 40%, 40%)" fill-opacity="1">
<use xlink:href="#glyph-733515-0-11" x="50" y="38"/>
<use xlink:href="#glyph-733515-0-12" x="53.663086" y="38"/>
<use xlink:href="#glyph-733515-0-13" x="59.780762" y="38"/>
<use xlink:href="#glyph-733515-0-13" x="65.898438" y="38"/>
<use xlink:href="#glyph-733515-0-8" x="72.016113" y="38"/>
<use xlink:href="#glyph-733515-0-13" x="74.459961" y="38"/>
<use xlink:href="#glyph-733515-0-14" x="80.577637" y="38"/>
<use xlink:href="#glyph-733515-0-15" x="86.695312" y="38"/>
<use xlink:href="#glyph-733515-0-16" x="89.751465" y="38"/>
<use xlink:href="#glyph-733515-0-17" x="95.869141" y="38"/>
<use xlink:href="#glyph-733515-0-10" x="101.369141" y="38"/>
<use xlink:href="#glyph-733515-0-11" x="107.486816" y="38"/>
<use xlink:href="#glyph-733515-0-16" x="111.149902" y="38"/>
<use xlink:href="#glyph-733515-0-14" x="117.267578" y="38"/>
<use xlink:href="#glyph-733515-0-10" x="123.385254" y="38"/>
<use xlink:href="#glyph-733515-0-15" x="129.50293" y="38"/>
<use xlink:href="#glyph-733515-0-18" x="132.559082" y="38"/>
<use xlink:href="#glyph-733515-0-19" x="138.676758" y="38"/>
<use xlink:href="#glyph-733515-0-15" x="141.73291" y="38"/>
<use xlink:href="#glyph-733515-0-20" x="144.789062" y="38"/>
</g>
<path fill="none" stroke-width="1.5" stroke-linecap="butt" stroke-linejoin="miter" stroke="rgb(0%, 0%, 0%)" stroke-opacity="1" stroke-dasharray="1 3" stroke-miterlimit="10" d="M 50 107.5 L 570 107.5 "/>
<g fill="rgb(0%, 0%, 0%)" fill-opacity="1">
<use xlink:href="#glyph-733515-1-0" x="580" y="111.5"/>
<use xlink:href="#glyph-733515-1-1" x="586.673828" y="111.5"/>
<use xlink:href="#glyph-733515-1-2" x="590.007812" y="111.5"/>
<use xlink:href="#glyph-733515-1-1" x="597.015625" y="111.5"/>
<use xlink:href="#glyph-733515-1-3" x="600.349609" y="111.5"/>
</g>
<path fill="none" stroke-width="2" stroke-linecap="butt" stroke-linejoin="miter" stroke="rgb(61.568627%, 72.156863%, 86.27451%)" stroke-opacity="1" stroke-miterlimit="10" d="M 50.070312 280 L 51.335938 262.863281 L 52.269531 260.527344 L 53.617188 261.03125 L 54.136719 260.964844 L 54.511719 257.105469 L 55.027344 245.375 L 55.378906 238.363281 L 56.179688 228.011719 L 57.074219 211.683594 L 58.246094 191.746094 L 58.824219 184.253906 L 59.503906 181.0625 L 60.160156 179.960938 L 60.976562 176.734375 L 61.828125 167.121094 L 62.792969 157.492188 L 63.410156 152.328125 L 63.84375 149.296875 L 64.53125 150 L 65.570312 155.5625 L 66.652344 161.371094 L 67.019531 163.542969 L 67.9375 168.210938 L 68.394531 169.378906 L 69.152344 172.285156 L 69.972656 174.804688 L 70.691406 172.898438 L 71.082031 171.195312 L 71.5 170.132812 L 71.867188 169.226562 L 72.363281 167.6875 L 73.101562 168.929688 L 73.652344 170.453125 L 74.464844 171.71875 L 76.359375 178.140625 L 77.046875 179.300781 L 77.492188 179.96875 L 78.296875 182.1875 L 79.453125 184.566406 L 80.15625 183.589844 L 81.140625 179.402344 L 81.738281 177.824219 L 82.242188 177.023438 L 82.589844 175.871094 L 83.113281 175.390625 L 83.804688 175.492188 L 84.472656 175.910156 L 85.300781 177.429688 L 86.359375 177.820312 L 86.796875 178.296875 L 87.890625 181.046875 L 88.53125 182.34375 L 89.367188 181.78125 L 89.8125 180.863281 L 90.542969 178.96875 L 90.996094 177.828125 L 91.90625 176.445312 L 93.335938 175.785156 L 93.71875 174.902344 L 94.140625 174.292969 L 94.882812 173.753906 L 95.625 173.339844 L 96.277344 172.570312 L 97.308594 170.015625 L 97.910156 168.390625 L 98.558594 167.183594 L 99.144531 166.257812 L 100.0625 164.625 L 100.730469 163.261719 L 101.5625 161.765625 L 102.386719 160.050781 L 102.953125 158.351562 L 103.316406 157.789062 L 103.996094 156.546875 L 105.035156 153.726562 L 105.523438 153.152344 L 106.542969 154.652344 L 107.132812 155.257812 L 107.757812 155.601562 L 108.609375 155.949219 L 109.738281 155.832031 L 110.386719 155.789062 L 111.230469 155.53125 L 111.777344 156.21875 L 112.773438 157.664062 L 113.410156 158.308594 L 114.042969 159.230469 L 114.664062 160.117188 L 115.757812 161.867188 L 116.222656 162.503906 L 117.277344 164.121094 L 117.949219 164.574219 L 119.082031 165.523438 L 119.410156 165.914062 L 120.472656 167.402344 L 121.578125 168.566406 L 123.574219 171.472656 L 124.769531 172.414062 L 125.390625 172.308594 L 126.035156 172.273438 L 126.75 172.386719 L 127.492188 173.058594 L 128.546875 174.25 L 129.253906 174.515625 L 129.953125 174.785156 L 131.035156 176 L 131.671875 176.691406 L 132.535156 177.382812 L 133.738281 178.714844 L 134.773438 179.710938 L 135.441406 180.328125 L 136.292969 180.734375 L 137.382812 181.445312 L 138.019531 181.023438 L 138.566406 180.53125 L 139.085938 179.945312 L 139.507812 179.597656 L 139.96875 179.476562 L 140.457031 179.898438 L 141.664062 181.105469 L 142.1875 181.335938 L 142.613281 181.53125 L 143.484375 182.132812 L 144.425781 182.804688 L 145.800781 184.023438 L 146.546875 184.503906 L 147.449219 184.851562 L 148.335938 185.4375 L 149.035156 185.890625 L 149.859375 186.558594 L 150.527344 187.105469 L 151.210938 187.550781 L 151.800781 188.039062 L 152.617188 188.65625 L 153.789062 188.777344 L 154.742188 188.589844 L 155.433594 188.339844 L 155.988281 188.011719 L 156.640625 187.308594 L 157.207031 186.835938 L 157.558594 186.558594 L 158.136719 186.277344 L 158.675781 186.550781 L 159.351562 187.046875 L 160.417969 187.535156 L 160.972656 187.953125 L 161.792969 188.21875 L 162.851562 188.863281 L 163.71875 189.472656 L 164.621094 189.988281 L 165.328125 190.105469 L 165.679688 189.984375 L 166.167969 189.980469 L 166.648438 190.222656 L 167.464844 190.683594 L 168.007812 191.007812 L 168.914062 191.519531 L 169.734375 191.871094 L 170.566406 192.300781 L 171.332031 192.796875 L 171.949219 192.992188 L 173.09375 193.578125 L 174 193.972656 L 175.035156 194.304688 L 175.625 194.210938 L 176.574219 194.507812 L 177.609375 195.023438 L 178.78125 195.546875 L 179.488281 195.8125 L 179.820312 195.898438 L 180.457031 196.007812 L 181.089844 196.175781 L 182.171875 196.765625 L 182.675781 197.027344 L 183.199219 196.996094 L 183.714844 196.589844 L 184.328125 196.183594 L 185.105469 195.550781 L 185.808594 195.089844 L 186.707031 194.40625 L 187.09375 194.144531 L 187.800781 193.546875 L 188.328125 193.359375 L 188.84375 193.339844 L 189.601562 193.140625 L 190.300781 193.226562 L 191.210938 193.414062 L 191.933594 193.34375 L 192.679688 193.515625 L 193.59375 193.875 L 194.457031 194.109375 L 195.203125 194.390625 L 196.808594 195.265625 L 197.71875 195.695312 L 198.628906 195.867188 L 199.449219 195.53125 L 199.910156 195.445312 L 200.609375 195.464844 L 201.375 195.46875 L 201.925781 195.402344 L 202.773438 195.222656 L 203.234375 195.046875 L 203.765625 194.519531 L 204.917969 193.464844 L 205.738281 192.285156 L 206.453125 191.144531 L 207.285156 190.152344 L 207.882812 189.402344 L 208.394531 188.683594 L 208.714844 188.390625 L 209.4375 188.089844 L 209.992188 187.523438 L 210.875 186.375 L 211.789062 185.105469 L 212.457031 184.585938 L 212.882812 184.34375 L 213.390625 183.972656 L 214.070312 183.214844 L 215.089844 182.003906 L 215.625 181.542969 L 216.351562 181.179688 L 216.96875 180.917969 L 217.625 180.703125 L 218.277344 180.640625 L 219.214844 180.875 L 219.882812 181.035156 L 221.234375 181.753906 L 221.824219 182.039062 L 222.492188 182.171875 L 222.878906 182.152344 L 223.597656 181.839844 L 224.078125 181.882812 L 224.652344 182.121094 L 225.105469 182.332031 L 225.867188 182.464844 L 226.324219 182.492188 L 227.109375 182.738281 L 228.175781 183.078125 L 229.046875 183.398438 L 229.851562 183.335938 L 230.539062 183.34375 L 231.191406 183.558594 L 232.113281 183.832031 L 233.148438 184.183594 L 234.507812 184.277344 L 235.503906 184.25 L 236.015625 184.226562 L 236.503906 184.039062 L 236.9375 183.992188 L 237.785156 183.929688 L 238.585938 184.136719 L 239.679688 184.648438 L 240.304688 184.875 L 241.351562 185.222656 L 242.796875 185.765625 L 243.59375 186.0625 L 244.632812 186.445312 L 245.238281 186.582031 L 246.253906 186.789062 L 247.390625 187.21875 L 248.480469 187.597656 L 249.039062 187.691406 L 250.402344 188.070312 L 250.96875 187.730469 L 251.5625 187.25 L 252.222656 186.714844 L 252.792969 186.234375 L 253.308594 186.054688 L 253.90625 185.820312 L 254.636719 185.414062 L 255.171875 184.851562 L 255.835938 183.917969 L 256.601562 182.597656 L 257.597656 180.660156 L 258.164062 179.46875 L 259.128906 177.535156 L 260.066406 175.949219 L 260.496094 175.273438 L 260.863281 174.679688 L 261.570312 173.484375 L 262.121094 172.414062 L 262.769531 171.296875 L 263.496094 169.945312 L 264.339844 168.273438 L 265.011719 166.902344 L 265.621094 165.839844 L 266.507812 164.394531 L 267.046875 163.730469 L 267.769531 162.746094 L 269.152344 160.816406 L 269.492188 160.378906 L 270.074219 159.542969 L 270.617188 158.863281 L 271.113281 158.164062 L 272.164062 156.632812 L 272.71875 155.917969 L 273.5625 154.863281 L 274.214844 154.152344 L 274.835938 153.585938 L 275.261719 153.082031 L 276.0625 151.886719 L 276.402344 151.410156 L 277.359375 150.160156 L 278.421875 148.445312 L 278.820312 147.742188 L 279.289062 146.761719 L 280.0625 144.9375 L 280.5625 143.796875 L 281.738281 141.195312 L 282.714844 139.082031 L 283.289062 138.113281 L 284.132812 136.761719 L 285.101562 135.199219 L 286.238281 133.550781 L 287.324219 131.910156 L 287.960938 130.804688 L 288.574219 129.871094 L 288.988281 129.320312 L 289.628906 128.464844 L 290.054688 127.769531 L 290.808594 126.78125 L 291.425781 125.996094 L 292.015625 125.351562 L 292.546875 124.675781 L 293.398438 123.820312 L 294.734375 122.851562 L 295.546875 122.15625 L 295.960938 121.90625 L 296.347656 121.71875 L 296.644531 121.636719 L 297.464844 121.652344 L 298.605469 121.433594 L 299.453125 121.4375 L 300.003906 121.558594 L 300.757812 121.710938 L 301.214844 121.957031 L 302.117188 122.308594 L 302.582031 122.40625 L 303.089844 122.539062 L 303.78125 122.667969 L 304.460938 122.746094 L 305.152344 122.8125 L 305.640625 122.777344 L 306.546875 122.644531 L 307.382812 122.566406 L 307.996094 122.367188 L 308.457031 122.28125 L 309.328125 122.484375 L 309.988281 122.703125 L 310.585938 122.859375 L 310.957031 122.871094 L 311.328125 122.894531 L 312.101562 122.890625 L 313.148438 122.996094 L 313.683594 123.003906 L 314.527344 123.296875 L 315.492188 123.511719 L 316.429688 123.898438 L 316.90625 124.007812 L 317.28125 124.050781 L 317.816406 124.015625 L 318.765625 123.734375 L 319.242188 123.625 L 320.277344 123.460938 L 321.171875 123.164062 L 321.65625 122.984375 L 322.351562 122.710938 L 323.214844 122.582031 L 323.828125 122.464844 L 324.242188 122.410156 L 325.160156 122.558594 L 325.816406 122.734375 L 326.394531 122.835938 L 327.160156 122.863281 L 327.589844 122.964844 L 328.347656 123.136719 L 329.265625 123.34375 L 330.34375 123.863281 L 331.089844 124.21875 L 331.613281 124.484375 L 332.339844 124.835938 L 333.214844 125.117188 L 334.5 125.71875 L 335.238281 126.027344 L 336.355469 126.578125 L 337.332031 127.035156 L 338.027344 127.292969 L 338.507812 127.390625 L 339.324219 127.671875 L 340.617188 128.210938 L 341.375 128.554688 L 342.679688 128.652344 L 343.613281 128.484375 L 344.878906 128.125 L 345.300781 128.082031 L 346.359375 128.273438 L 347.210938 128.480469 L 348.113281 128.730469 L 348.527344 128.824219 L 349.046875 129.007812 L 349.855469 129.285156 L 350.386719 129.375 L 351.417969 129.554688 L 352.019531 129.535156 L 352.964844 129.335938 L 353.800781 129.050781 L 354.445312 128.730469 L 354.894531 128.679688 L 355.535156 128.835938 L 356.222656 128.972656 L 356.800781 129.160156 L 358.046875 129.699219 L 359.289062 130.246094 L 359.890625 130.394531 L 360.5625 130.542969 L 361.496094 130.765625 L 362.507812 131.128906 L 363.039062 131.296875 L 363.925781 131.628906 L 364.546875 131.703125 L 365.613281 132.019531 L 366.410156 132.347656 L 367.402344 132.75 L 368.632812 133.09375 L 369.101562 133.210938 L 369.5 133.351562 L 370.839844 133.835938 L 371.582031 134.148438 L 372.226562 134.222656 L 373.183594 134.261719 L 373.65625 134.148438 L 374.585938 133.78125 L 375.078125 133.59375 L 375.792969 133.394531 L 376.894531 133.28125 L 377.507812 133.179688 L 378.371094 133.144531 L 379.125 133.101562 L 379.8125 133.085938 L 380.28125 133.148438 L 381.101562 133.222656 L 381.824219 133.289062 L 383.078125 133.746094 L 383.628906 133.929688 L 385.019531 134.457031 L 385.675781 134.65625 L 386.339844 134.882812 L 387.046875 135.070312 L 388.445312 135.644531 L 388.964844 135.800781 L 389.5 136 L 390.382812 136.246094 L 391.488281 136.644531 L 391.90625 136.730469 L 392.5 136.949219 L 393.476562 137.308594 L 394.164062 137.554688 L 394.664062 137.738281 L 395.410156 137.992188 L 396.339844 138.273438 L 396.878906 138.472656 L 398.011719 138.90625 L 399.394531 139.394531 L 400.378906 139.664062 L 401.113281 139.789062 L 401.707031 139.914062 L 402.445312 140.066406 L 402.988281 140.222656 L 403.816406 140.5 L 404.339844 140.6875 L 404.945312 140.8125 L 405.628906 140.875 L 406.351562 141.058594 L 406.925781 141.175781 L 407.257812 141.203125 L 407.976562 141.457031 L 408.53125 141.648438 L 409.183594 141.855469 L 409.6875 141.992188 L 410.851562 142.160156 L 411.515625 142.234375 L 411.878906 142.3125 L 412.96875 142.394531 L 413.96875 142.507812 L 414.628906 142.683594 L 415.535156 142.824219 L 416.328125 143.011719 L 416.910156 143.183594 L 417.707031 143.394531 L 418.347656 143.476562 L 418.824219 143.550781 L 419.46875 143.769531 L 420.582031 144.066406 L 421.300781 144.207031 L 422.074219 144.410156 L 423.316406 144.828125 L 423.820312 144.996094 L 424.964844 145.320312 L 425.582031 145.519531 L 426.324219 145.714844 L 427.09375 145.71875 L 427.921875 145.597656 L 428.695312 145.648438 L 429.328125 145.769531 L 430.042969 145.945312 L 430.835938 146.164062 L 431.589844 146.230469 L 432.328125 146.140625 L 432.980469 146 L 433.804688 145.765625 L 434.46875 145.542969 L 434.886719 145.417969 L 435.777344 145.214844 L 436.410156 145.027344 L 437.082031 144.90625 L 438.066406 144.625 L 438.613281 144.34375 L 439.773438 143.644531 L 440.519531 143.160156 L 441.554688 142.503906 L 441.964844 142.175781 L 442.375 141.863281 L 443.304688 141.242188 L 443.953125 140.746094 L 444.722656 140.339844 L 445.507812 140.125 L 446.082031 139.988281 L 446.734375 139.875 L 447.773438 139.613281 L 448.671875 139.46875 L 449.230469 139.398438 L 449.8125 139.285156 L 450.160156 139.25 L 450.894531 139.304688 L 451.683594 139.453125 L 452.515625 139.691406 L 453.171875 139.816406 L 454.296875 139.898438 L 455.09375 140.074219 L 455.449219 140.121094 L 455.929688 140.175781 L 456.328125 140.105469 L 457.324219 139.777344 L 457.914062 139.417969 L 458.347656 139.175781 L 458.957031 138.832031 L 459.519531 138.539062 L 459.863281 138.378906 L 460.609375 137.960938 L 461.429688 137.734375 L 462.695312 137.324219 L 463.441406 136.953125 L 464.386719 136.675781 L 465.136719 136.425781 L 465.847656 136.152344 L 466.433594 135.871094 L 466.898438 135.617188 L 467.824219 135.136719 L 468.5 134.808594 L 468.882812 134.636719 L 469.5 134.398438 L 470.277344 133.96875 L 470.898438 133.699219 L 471.652344 133.304688 L 472.097656 133.113281 L 472.660156 132.816406 L 473.261719 132.597656 L 473.894531 132.46875 L 474.253906 132.363281 L 474.78125 132.230469 L 475.5 132.207031 L 476.015625 132.203125 L 476.6875 132.15625 L 477.28125 132.007812 L 477.792969 132.007812 L 478.300781 132.042969 L 479.285156 132.140625 L 480.074219 132.300781 L 481.015625 132.535156 L 481.742188 132.628906 L 482.53125 132.601562 L 483.144531 132.488281 L 483.917969 132.371094 L 484.445312 132.253906 L 484.824219 132.175781 L 485.503906 132.058594 L 486.382812 131.96875 L 486.890625 131.894531 L 487.34375 131.808594 L 487.800781 131.742188 L 488.425781 131.753906 L 489.011719 131.796875 L 490.039062 131.816406 L 490.832031 131.910156 L 491.378906 131.996094 L 491.773438 132.082031 L 492.359375 132.203125 L 493.355469 132.519531 L 494.382812 132.808594 L 495.703125 133.164062 L 496.183594 133.296875 L 498.554688 134.039062 L 499.007812 134.117188 L 499.566406 134.15625 L 500.363281 134.125 L 501.054688 134.023438 L 501.691406 134.058594 L 502.925781 134.40625 L 503.335938 134.441406 L 503.941406 134.566406 L 505.179688 134.785156 L 505.761719 134.945312 L 506.878906 135.289062 L 508.128906 135.65625 L 508.8125 135.710938 L 509.472656 135.6875 L 510.230469 135.667969 L 510.664062 135.636719 L 511.539062 135.542969 L 511.96875 135.503906 L 513.207031 135.273438 L 514.101562 135.109375 L 514.953125 135.054688 L 515.441406 135.074219 L 516.515625 135 L 516.792969 134.988281 L 517.21875 134.957031 L 517.945312 134.910156 L 519.207031 134.652344 L 519.53125 134.566406 L 520.421875 134.308594 L 520.933594 134.207031 L 521.722656 134.125 L 522.410156 134.078125 L 523.320312 134.046875 L 523.871094 134.082031 L 524.714844 134.1875 L 525.351562 134.222656 L 525.976562 134.226562 L 526.300781 134.273438 L 526.929688 134.308594 L 527.601562 134.332031 L 528.167969 134.402344 L 528.777344 134.355469 L 529.660156 134.375 L 530.59375 134.433594 L 531.25 134.601562 L 531.941406 134.773438 L 532.605469 134.828125 L 533.855469 135.160156 L 534.207031 135.234375 L 535.023438 135.390625 L 536.128906 135.671875 L 536.617188 135.765625 L 537.328125 135.867188 L 538.171875 136.039062 L 538.753906 136.074219 L 539.417969 136.074219 L 540.234375 136.128906 L 541.136719 136.019531 L 541.835938 135.921875 L 542.433594 135.871094 L 542.933594 135.785156 L 544.070312 135.582031 L 544.570312 135.503906 L 545.304688 135.386719 L 545.867188 135.230469 L 546.457031 134.964844 L 547.144531 134.625 L 547.683594 134.394531 L 548.269531 134.140625 L 548.835938 133.855469 L 549.535156 133.441406 L 550.105469 133.089844 L 550.605469 132.765625 L 551.195312 132.425781 L 551.773438 132.121094 L 552.410156 131.886719 L 553.34375 131.632812 L 553.941406 131.496094 L 554.683594 131.308594 L 555.433594 130.96875 L 555.960938 130.769531 L 556.828125 130.597656 L 557.949219 130.3125 L 558.894531 130.085938 L 559.457031 130.039062 L 560.128906 130.058594 L 560.699219 130.109375 L 561.460938 130.191406 L 561.972656 130.222656 L 562.609375 130.230469 L 563.289062 130.238281 L 564.058594 130.242188 L 564.679688 130.289062 L 566.40625 130.753906 L 567.332031 130.992188 L 568.152344 131.207031 L 569.082031 131.441406 L 569.652344 131.546875 "/>
<path fill="none" stroke-width="2" stroke-linecap="butt" stroke-linejoin="miter" stroke="rgb(41.960784%, 55.686275%, 78.823529%)" stroke-opacity="1" stroke-miterlimit="10" d="M 50.113281 280 L 50.9375 254.21875 L 51.46875 243.027344 L 51.917969 228.515625 L 52.617188 194.207031 L 53.648438 154.191406 L 54.40625 141.105469 L 54.859375 135.335938 L 55.566406 148.234375 L 56.007812 153.214844 L 56.59375 155.417969 L 57.175781 160.800781 L 57.640625 166.921875 L 58.316406 172.390625 L 59.007812 178.066406 L 59.570312 177.527344 L 60.304688 180.265625 L 61.660156 186.847656 L 62.613281 191.820312 L 63.328125 195 L 64.25 197.421875 L 64.722656 199.109375 L 65.167969 200.40625 L 65.949219 200.59375 L 66.828125 202.664062 L 67.511719 199.632812 L 68.171875 195.390625 L 68.972656 186.988281 L 69.613281 179.003906 L 70.277344 171.980469 L 70.917969 164.40625 L 71.433594 159.101562 L 71.894531 153.328125 L 72.675781 141.410156 L 73.96875 120.910156 L 74.492188 111.410156 L 75.132812 99.332031 L 75.433594 94.980469 L 75.96875 87.863281 L 76.753906 80.921875 L 77.328125 76.476562 L 77.710938 74.480469 L 78.273438 72.222656 L 78.5 70.988281 L 79.503906 65.785156 L 79.738281 64.886719 L 80.457031 64.5 L 81.363281 66.894531 L 81.855469 69.488281 L 82.398438 72.78125 L 83.210938 77.339844 L 83.550781 79.074219 L 84.28125 82.453125 L 85.023438 86 L 85.742188 87.898438 L 86.46875 87.621094 L 86.925781 86.535156 L 87.941406 86.160156 L 88.367188 86.753906 L 88.832031 86.9375 L 89.214844 87.480469 L 89.640625 88.15625 L 90.328125 90.046875 L 90.742188 90.710938 L 91.34375 91.710938 L 92.753906 93.246094 L 93.402344 93.863281 L 93.738281 94.351562 L 94.730469 94.238281 L 95.257812 93.996094 L 95.667969 93.515625 L 96.515625 92.523438 L 96.949219 91.800781 L 97.507812 91.019531 L 98.390625 89.492188 L 99.121094 89.734375 L 99.535156 89.964844 L 100.28125 91.257812 L 100.9375 91.984375 L 101.582031 92.847656 L 101.976562 93.4375 L 102.5 94.449219 L 103.226562 96.808594 L 103.9375 98.316406 L 104.824219 99.335938 L 105.425781 99.394531 L 106.035156 99.636719 L 106.707031 99.847656 L 108.003906 100.972656 L 108.570312 101.507812 L 109.175781 101.925781 L 109.539062 101.976562 L 110.199219 102.082031 L 110.988281 103.550781 L 111.621094 104.96875 L 112.675781 107.558594 L 113.640625 109.894531 L 113.9375 110.34375 L 114.585938 110.769531 L 115.015625 111.308594 L 116.035156 112.492188 L 116.59375 113.464844 L 117.53125 115.535156 L 117.949219 116.433594 L 118.828125 117.945312 L 119.453125 119.101562 L 120.042969 119.492188 L 120.769531 120.128906 L 121.734375 120.632812 L 122.207031 120.613281 L 122.386719 120.6875 L 123.246094 121.371094 L 123.738281 122.042969 L 124.464844 123.484375 L 124.847656 124.171875 L 125.429688 125.152344 L 126.054688 125.949219 L 126.472656 126.390625 L 127.539062 126.914062 L 128.355469 128.324219 L 129.226562 129.210938 L 129.988281 129.917969 L 130.773438 130.34375 L 131.320312 131.136719 L 132.058594 132.328125 L 132.640625 133.242188 L 133.324219 134.304688 L 134.046875 134.839844 L 135.148438 135.132812 L 136.140625 135.808594 L 136.539062 136.429688 L 137.242188 137.390625 L 138.34375 138.667969 L 139.015625 139.5625 L 139.792969 140.539062 L 140.273438 141.007812 L 140.949219 141.398438 L 141.238281 141.5 L 141.890625 141.925781 L 142.75 142.300781 L 144.5625 144.835938 L 146.015625 146.746094 L 146.914062 147.894531 L 147.6875 148.71875 L 148.136719 148.839844 L 148.777344 149.015625 L 149.347656 149.417969 L 149.675781 149.667969 L 150.277344 149.863281 L 151.058594 149.910156 L 151.878906 150.136719 L 153.542969 152.039062 L 155.023438 153.792969 L 155.75 154.574219 L 156.347656 154.800781 L 157.28125 155.75 L 158.285156 156.765625 L 159.464844 158.039062 L 160.035156 158.277344 L 160.859375 157.816406 L 161.542969 157.550781 L 162.507812 157.339844 L 163.046875 156.898438 L 163.550781 156.414062 L 164.433594 156.433594 L 164.761719 156.503906 L 165.417969 156.808594 L 165.757812 157.007812 L 167.308594 158.023438 L 168.09375 158.707031 L 169.269531 159.699219 L 170.503906 160.609375 L 171.703125 161.667969 L 172.875 162.484375 L 173.273438 162.683594 L 174.53125 163.519531 L 175.035156 163.378906 L 175.742188 163.082031 L 176.382812 162.75 L 177.449219 162.664062 L 178.464844 163.136719 L 179.34375 163.53125 L 180.269531 164.160156 L 180.894531 164.617188 L 181.921875 165.339844 L 182.753906 165.824219 L 183.410156 166.265625 L 184.039062 166.660156 L 184.480469 166.875 L 185.285156 167.121094 L 186.046875 167.097656 L 186.710938 166.945312 L 187.347656 167 L 187.992188 167.21875 L 188.613281 167.480469 L 188.804688 167.480469 L 189.550781 167.207031 L 190.078125 167.054688 L 190.628906 167.292969 L 191.898438 167.660156 L 192.621094 168.035156 L 193.105469 168.34375 L 194.257812 169.179688 L 194.855469 169.507812 L 195.289062 169.660156 L 195.835938 169.988281 L 196.882812 170.039062 L 197.808594 170.535156 L 198.785156 171.136719 L 199.941406 171.957031 L 201.042969 172.554688 L 201.617188 172.792969 L 202.203125 172.972656 L 202.757812 173.269531 L 203.949219 173.921875 L 205.289062 174.296875 L 206.003906 174.296875 L 206.757812 174.113281 L 207.574219 173.273438 L 208.355469 172.496094 L 208.738281 172.171875 L 209.347656 171.832031 L 210.304688 171.914062 L 211.246094 172.46875 L 211.933594 172.890625 L 213.40625 173.816406 L 214.222656 174.027344 L 214.855469 174.078125 L 215.347656 174.257812 L 216.226562 174.632812 L 216.980469 175 L 217.394531 175.117188 L 217.960938 175.191406 L 218.785156 175.199219 L 219.398438 175.230469 L 220.121094 175.230469 L 221.238281 174.992188 L 222.015625 174.464844 L 222.839844 173.890625 L 223.441406 173.597656 L 224.128906 173.132812 L 224.71875 172.8125 L 225.371094 172.425781 L 226.046875 171.890625 L 226.617188 171.300781 L 227.152344 171.003906 L 228.183594 170.070312 L 228.664062 169.589844 L 229.050781 169.023438 L 229.359375 168.515625 L 229.980469 167.460938 L 230.550781 166.640625 L 231.042969 165.953125 L 231.65625 165.492188 L 232.257812 164.96875 L 232.828125 164.308594 L 233.472656 163.546875 L 234.027344 162.878906 L 234.753906 161.621094 L 235.769531 159.78125 L 236.5625 158.695312 L 237.609375 157.40625 L 238.371094 156.609375 L 239.09375 155.5625 L 239.769531 154.8125 L 240.234375 154.476562 L 240.910156 153.890625 L 241.4375 153.535156 L 242.210938 153.222656 L 242.746094 152.871094 L 243.328125 152.179688 L 243.75 151.503906 L 244.316406 150.765625 L 244.703125 150.351562 L 245.546875 149.421875 L 246.167969 148.925781 L 246.902344 148.210938 L 247.882812 147.023438 L 248.835938 145.675781 L 249.851562 143.832031 L 250.695312 142.234375 L 251.25 141.261719 L 251.886719 140.019531 L 252.640625 138.574219 L 253.6875 136.660156 L 254.355469 135.253906 L 255.148438 133.199219 L 255.703125 131.925781 L 256.261719 130.738281 L 256.96875 129.089844 L 257.5 128.039062 L 257.964844 127.148438 L 258.714844 125.824219 L 259.691406 124.222656 L 260.207031 123.425781 L 260.925781 122.335938 L 261.554688 121.484375 L 262.222656 120.820312 L 262.96875 120.304688 L 263.449219 119.949219 L 263.8125 119.65625 L 264.933594 118.675781 L 265.644531 117.898438 L 266.304688 117.1875 L 267.074219 116.507812 L 267.925781 115.953125 L 268.863281 115.378906 L 270.785156 114.730469 L 271.589844 114.660156 L 272.210938 114.671875 L 272.996094 114.851562 L 273.765625 115.234375 L 274.214844 115.3125 L 275.15625 115.707031 L 275.933594 115.972656 L 276.523438 116.125 L 276.941406 116.203125 L 277.804688 116.300781 L 278.285156 116.28125 L 278.722656 116.210938 L 279.238281 116.378906 L 279.980469 116.609375 L 280.351562 116.609375 L 280.839844 116.554688 L 281.792969 116.085938 L 282.902344 115.496094 L 283.714844 115.253906 L 284.410156 115.003906 L 285.632812 114.824219 L 286.109375 114.808594 L 286.890625 115.003906 L 287.421875 115.289062 L 288.230469 115.804688 L 289.003906 116.171875 L 289.9375 116.734375 L 290.679688 117.0625 L 291.332031 117.417969 L 292.203125 117.929688 L 292.960938 118.285156 L 293.667969 118.605469 L 294.570312 118.894531 L 294.96875 119.082031 L 295.585938 119.375 L 296.203125 119.59375 L 297.074219 120.050781 L 297.777344 120.257812 L 298.378906 120.347656 L 299.199219 120.128906 L 299.792969 119.769531 L 300.75 119.015625 L 301.761719 118.445312 L 302.214844 118.144531 L 302.929688 117.683594 L 303.582031 117.203125 L 304.515625 116.773438 L 305.679688 116.480469 L 306.378906 116.339844 L 306.90625 116.105469 L 308.039062 115.753906 L 308.40625 115.695312 L 309.136719 115.863281 L 309.773438 115.980469 L 310.359375 116.144531 L 310.773438 116.160156 L 311.558594 116.324219 L 312.328125 116.59375 L 313.238281 116.765625 L 314.0625 116.863281 L 315.214844 117.414062 L 315.5 117.46875 L 316.058594 117.386719 L 316.757812 117.28125 L 317.074219 117.253906 L 317.867188 116.957031 L 318.234375 116.785156 L 318.8125 116.65625 L 319.210938 116.480469 L 319.734375 116.136719 L 320.4375 115.476562 L 320.980469 114.988281 L 321.753906 114.472656 L 322.71875 114.019531 L 323.4375 113.914062 L 324.582031 114.199219 L 325.21875 114.410156 L 325.554688 114.570312 L 327.253906 115.488281 L 328.28125 115.910156 L 329.449219 116.25 L 329.871094 116.378906 L 330.332031 116.316406 L 330.996094 116.195312 L 331.589844 116.035156 L 332.109375 116.019531 L 332.851562 116.238281 L 333.234375 116.375 L 334.238281 116.617188 L 334.996094 116.9375 L 335.84375 117.03125 L 336.667969 117.371094 L 337.359375 117.699219 L 338.378906 118.015625 L 338.742188 118.035156 L 339.636719 118.0625 L 339.933594 118.078125 L 340.527344 117.9375 L 341.109375 117.84375 L 342.015625 117.675781 L 343.039062 117.511719 L 343.867188 117.480469 L 344.601562 117.488281 L 345.261719 117.523438 L 345.957031 117.554688 L 346.773438 117.574219 L 347.460938 117.679688 L 348.019531 117.808594 L 349.488281 118.535156 L 350.015625 118.703125 L 350.519531 118.832031 L 351.621094 119.078125 L 352.632812 119.550781 L 353.410156 119.929688 L 354.367188 120.421875 L 355.039062 120.636719 L 355.910156 120.941406 L 356.875 121.210938 L 357.597656 121.3125 L 358.480469 121.359375 L 359.679688 121.652344 L 360.304688 121.695312 L 360.960938 121.699219 L 361.675781 121.738281 L 362.769531 121.921875 L 363.71875 122.140625 L 364.246094 122.296875 L 365.011719 122.558594 L 365.492188 122.65625 L 366.078125 122.695312 L 366.824219 122.691406 L 367.359375 122.839844 L 367.867188 122.890625 L 368.699219 122.890625 L 369.695312 122.835938 L 370.246094 122.785156 L 371.230469 122.90625 L 371.660156 122.976562 L 372.304688 123.125 L 372.871094 123.316406 L 373.394531 123.511719 L 374.117188 123.804688 L 375.589844 124.457031 L 376.078125 124.640625 L 377.179688 124.96875 L 377.84375 125.238281 L 378.496094 125.46875 L 379.136719 125.757812 L 379.882812 125.933594 L 380.539062 126.019531 L 381.652344 126.0625 L 382.210938 126.25 L 382.914062 126.46875 L 383.53125 126.664062 L 384.382812 126.808594 L 384.941406 127.003906 L 385.417969 127.121094 L 385.945312 127.300781 L 386.464844 127.40625 L 387.289062 127.480469 L 387.960938 127.417969 L 388.382812 127.234375 L 389.269531 126.898438 L 389.804688 126.691406 L 390.378906 126.4375 L 391.179688 125.933594 L 391.742188 125.640625 L 392.203125 125.371094 L 393.085938 124.832031 L 393.890625 124.453125 L 394.8125 124.242188 L 395.464844 124.300781 L 396.292969 124.582031 L 397.785156 125.179688 L 398.351562 125.386719 L 399.089844 125.632812 L 400.023438 125.847656 L 400.660156 125.8125 L 401.53125 125.582031 L 401.996094 125.417969 L 402.542969 125.191406 L 403.113281 124.933594 L 403.828125 124.738281 L 404.789062 124.695312 L 405.484375 124.6875 L 407.082031 124.441406 L 407.65625 124.199219 L 408.273438 123.996094 L 408.828125 123.90625 L 409.703125 123.871094 L 410.28125 123.855469 L 411.023438 123.824219 L 411.597656 123.800781 L 412.039062 123.75 L 412.617188 123.789062 L 413.453125 123.808594 L 414.242188 123.992188 L 415.121094 124.132812 L 415.421875 124.167969 L 416.210938 124.398438 L 416.980469 124.667969 L 417.605469 124.804688 L 418.316406 124.929688 L 419.578125 125.367188 L 420.558594 125.761719 L 421.886719 126.234375 L 422.960938 126.617188 L 423.714844 126.835938 L 424.15625 126.925781 L 424.808594 127.058594 L 425.738281 127.21875 L 426.546875 127.273438 L 426.945312 127.339844 L 427.84375 127.402344 L 428.582031 127.414062 L 429.171875 127.472656 L 430.019531 127.617188 L 430.546875 127.589844 L 431.230469 127.640625 L 431.980469 127.582031 L 432.59375 127.535156 L 433.261719 127.453125 L 433.761719 127.394531 L 434.445312 127.257812 L 435.148438 127.199219 L 435.769531 127.40625 L 436.324219 127.5625 L 437.050781 127.804688 L 437.734375 128.0625 L 438.652344 128.34375 L 440.042969 128.828125 L 441.140625 129.027344 L 442.125 129.308594 L 442.65625 129.445312 L 443.027344 129.511719 L 444.011719 129.660156 L 444.636719 129.769531 L 445.113281 129.871094 L 445.886719 129.851562 L 446.808594 129.6875 L 447.433594 129.503906 L 448.195312 129.382812 L 449.210938 129.300781 L 449.710938 129.332031 L 450.351562 129.363281 L 450.746094 129.410156 L 451.621094 129.539062 L 452.351562 129.605469 L 453.074219 129.753906 L 454.796875 130.363281 L 455.773438 130.710938 L 456.925781 130.984375 L 457.710938 131.171875 L 458.683594 131.46875 L 459.394531 131.625 L 460.1875 131.832031 L 460.679688 131.832031 L 461.441406 131.695312 L 462.453125 131.390625 L 463.007812 131.082031 L 463.601562 130.765625 L 464.386719 130.429688 L 465.804688 129.578125 L 467.066406 128.878906 L 467.328125 128.742188 L 467.792969 128.582031 L 468.640625 128.394531 L 469.535156 128.308594 L 470.359375 128.378906 L 470.664062 128.421875 L 471.464844 128.34375 L 472.019531 128.292969 L 472.710938 128.136719 L 473.410156 128 L 473.996094 127.875 L 474.570312 127.851562 L 474.980469 127.84375 L 475.410156 127.816406 L 476.105469 127.785156 L 476.828125 127.757812 L 477.539062 127.785156 L 477.9375 127.796875 L 478.835938 127.757812 L 479.796875 127.707031 L 480.632812 127.578125 L 481.421875 127.433594 L 481.949219 127.351562 L 482.679688 127.308594 L 483.175781 127.253906 L 483.6875 127.21875 L 484.464844 127.234375 L 484.949219 127.347656 L 485.582031 127.519531 L 486.398438 127.738281 L 487.128906 127.980469 L 487.527344 128.03125 L 488.242188 127.96875 L 489.34375 127.566406 L 490.152344 127.34375 L 490.800781 127.226562 L 491.566406 127.21875 L 492.175781 127.320312 L 492.550781 127.355469 L 493.5 127.46875 L 493.925781 127.507812 L 494.527344 127.546875 L 495.441406 127.648438 L 496.40625 127.863281 L 497.425781 128.070312 L 498.222656 128.300781 L 499.066406 128.566406 L 499.851562 128.777344 L 500.105469 128.800781 L 500.761719 128.792969 L 501.476562 128.816406 L 502.039062 128.824219 L 502.648438 128.863281 L 504.371094 129.386719 L 505.289062 129.679688 L 506.195312 129.957031 L 506.761719 130.089844 L 507.890625 130.425781 L 508.796875 130.542969 L 509.394531 130.519531 L 510.417969 130.308594 L 511.039062 130.175781 L 512.0625 129.988281 L 512.539062 129.925781 L 513.175781 129.878906 L 513.660156 129.875 L 514.277344 129.835938 L 515.140625 129.792969 L 515.757812 129.800781 L 516.429688 129.789062 L 517.054688 129.765625 L 517.667969 129.792969 L 518.390625 129.699219 L 519.382812 129.457031 L 519.828125 129.363281 L 520.46875 129.332031 L 521.050781 129.386719 L 521.800781 129.535156 L 522.445312 129.691406 L 523.300781 129.890625 L 524.867188 130.359375 L 525.359375 130.492188 L 525.941406 130.636719 L 526.691406 130.824219 L 527.234375 130.945312 L 527.898438 131.136719 L 528.28125 131.203125 L 528.835938 131.222656 L 529.648438 131.164062 L 530.4375 131.148438 L 530.976562 131.222656 L 531.214844 131.210938 L 531.785156 131.160156 L 532.433594 131.125 L 532.828125 131.109375 L 533.492188 131 L 533.96875 130.890625 L 534.621094 130.707031 L 534.96875 130.609375 L 535.316406 130.5625 L 536.4375 130.527344 L 537.585938 130.535156 L 538.414062 130.550781 L 539.007812 130.648438 L 540.601562 131.089844 L 541.683594 131.378906 L 542.753906 131.605469 L 543.644531 131.683594 L 544.023438 131.746094 L 544.480469 131.789062 L 545.570312 131.839844 L 546.128906 131.878906 L 546.878906 132 L 547.851562 132.191406 L 548.792969 132.417969 L 549.488281 132.605469 L 550.332031 132.792969 L 551.007812 132.839844 L 552.132812 132.957031 L 553.132812 132.96875 L 553.914062 132.847656 L 554.921875 132.75 L 555.632812 132.753906 L 556.355469 132.652344 L 557.085938 132.46875 L 558.070312 132.375 L 558.5 132.390625 L 558.882812 132.375 L 559.257812 132.375 L 560.113281 132.367188 L 560.820312 132.292969 L 561.765625 132.113281 L 562.164062 132.066406 L 562.898438 131.851562 L 563.28125 131.730469 L 563.742188 131.699219 L 564.335938 131.773438 L 565.089844 131.910156 L 565.898438 132.113281 L 566.28125 132.1875 L 566.632812 132.269531 L 567.304688 132.417969 L 567.765625 132.535156 L 568.582031 132.730469 L 569.40625 132.929688 "/>
<path fill="none" stroke-width="2" stroke-linecap="butt" stroke-linejoin="miter" stroke="rgb(23.137255%, 41.960784%, 70.980392%)" stroke-opacity="1" stroke-miterlimit="10" d="M 50.242188 280 L 51.082031 263.953125 L 52.242188 252.285156 L 52.910156 254.851562 L 53.683594 252.335938 L 54.589844 252.101562 L 55.386719 236.765625 L 56.050781 228.550781 L 56.859375 219.992188 L 57.347656 219.59375 L 58.40625 221.394531 L 58.96875 217.144531 L 59.546875 217.746094 L 59.964844 216.789062 L 60.722656 216.164062 L 61.265625 215.929688 L 61.992188 214.414062 L 62.402344 212.632812 L 62.972656 213.921875 L 63.335938 213.71875 L 64.0625 212.550781 L 65.042969 214.230469 L 66.335938 218.628906 L 67.0625 218.847656 L 67.707031 217.941406 L 68.84375 220.421875 L 69.214844 220.980469 L 69.75 221.804688 L 70.640625 223.550781 L 71.191406 224.019531 L 71.914062 224.574219 L 72.515625 224.347656 L 73.722656 224.46875 L 74.914062 226.660156 L 75.464844 226.625 L 76.09375 226.75 L 76.753906 227.277344 L 77.132812 227.027344 L 78.078125 225.972656 L 78.46875 224.320312 L 78.949219 221.785156 L 79.703125 217.414062 L 80.527344 212.53125 L 81.207031 209.671875 L 81.742188 207.730469 L 82.710938 205.691406 L 83.722656 204.746094 L 84.238281 204.304688 L 85.207031 204.375 L 86.066406 205.238281 L 86.886719 205.558594 L 87.585938 206.761719 L 88.628906 208.246094 L 89.164062 208.949219 L 89.625 208.996094 L 90.390625 209.898438 L 91.296875 211.160156 L 92.351562 212.761719 L 92.824219 212.238281 L 93.636719 211.832031 L 94.425781 212.199219 L 95.453125 212.453125 L 95.925781 213.019531 L 97.042969 214.210938 L 98.15625 215.621094 L 99.191406 216.703125 L 100.886719 218.328125 L 102.1875 219.351562 L 102.738281 219.492188 L 103.210938 219.460938 L 103.960938 219.902344 L 104.617188 219.269531 L 105.5 218.328125 L 106.492188 217.058594 L 107.214844 216.007812 L 108.023438 213.558594 L 108.792969 210.160156 L 109.332031 207.089844 L 109.855469 204.085938 L 110.53125 200.574219 L 110.890625 199.019531 L 111.207031 197.820312 L 112.132812 194.355469 L 112.746094 192.289062 L 113.816406 190.796875 L 114.4375 190.269531 L 115.015625 190.824219 L 115.5 190.90625 L 116.105469 191.167969 L 117.042969 192.152344 L 117.589844 192.683594 L 118.175781 193.109375 L 118.703125 193.070312 L 119.179688 192.628906 L 120.355469 190.773438 L 120.808594 190.40625 L 121.96875 189.949219 L 122.359375 189.996094 L 122.898438 190.105469 L 123.347656 189.820312 L 123.863281 190.246094 L 124.957031 190.820312 L 125.667969 191.597656 L 126.292969 191.871094 L 126.691406 192.148438 L 127.460938 192.597656 L 128.25 193.195312 L 129.113281 193.53125 L 130.035156 193.542969 L 130.996094 194.230469 L 131.578125 194.777344 L 132.074219 195.019531 L 133.210938 195.253906 L 134.195312 194.652344 L 135.1875 194.582031 L 135.878906 194.113281 L 136.816406 193.019531 L 137.671875 192.664062 L 138.230469 192.175781 L 138.78125 192.023438 L 139.835938 192.5625 L 140.371094 192.777344 L 141.398438 193.464844 L 141.863281 193.484375 L 142.835938 192.929688 L 143.492188 192.949219 L 144.269531 193.324219 L 144.59375 193.402344 L 145.953125 194.546875 L 147.65625 195.777344 L 148.089844 195.761719 L 149.019531 196.039062 L 149.574219 196.335938 L 150.65625 196.941406 L 151.625 197.609375 L 151.984375 197.84375 L 152.953125 198.527344 L 153.472656 198.882812 L 154.085938 199.148438 L 155.007812 199.675781 L 155.761719 199.789062 L 156.355469 199.972656 L 157 200.359375 L 157.539062 200.488281 L 158.261719 200.832031 L 158.992188 201.015625 L 159.796875 201.425781 L 160.496094 201.910156 L 161.320312 202.402344 L 162.054688 202.363281 L 162.953125 202.183594 L 163.945312 201.988281 L 165.273438 202.707031 L 166.550781 203.515625 L 167.558594 203.914062 L 168.339844 203.671875 L 169.191406 203.863281 L 170.691406 204.648438 L 171.648438 204.957031 L 172.398438 205.246094 L 172.9375 205.132812 L 173.65625 204.726562 L 174.246094 203.578125 L 174.722656 202.570312 L 175.09375 201.71875 L 176.207031 198.355469 L 176.644531 196.96875 L 177.40625 194.8125 L 178.015625 193.789062 L 178.625 193.054688 L 179.195312 192.59375 L 179.753906 191.820312 L 180.199219 191.144531 L 180.820312 190.082031 L 181.808594 188.183594 L 182.835938 186.144531 L 183.507812 184.824219 L 184.128906 183.789062 L 184.792969 182.457031 L 185.425781 181.054688 L 186.464844 178.417969 L 187.308594 175.5625 L 187.96875 173.246094 L 188.597656 171.074219 L 189.335938 168.636719 L 189.902344 166.703125 L 190.4375 165.285156 L 191.070312 163.734375 L 191.757812 161.957031 L 192.421875 160.070312 L 193.039062 158.257812 L 193.808594 155.722656 L 194.472656 153.078125 L 195.261719 149.820312 L 195.859375 147.289062 L 196.289062 145.371094 L 196.765625 143.328125 L 197.503906 140.476562 L 198.4375 137.308594 L 198.851562 135.988281 L 199.640625 133.644531 L 200.0625 132.234375 L 200.570312 130.609375 L 201.222656 128.734375 L 201.765625 127.394531 L 202.46875 125.859375 L 203.222656 124.621094 L 203.992188 123.601562 L 205.011719 122.285156 L 205.566406 121.886719 L 206.097656 121.617188 L 206.660156 121.59375 L 207.242188 121.65625 L 207.550781 121.628906 L 208.164062 121.394531 L 208.796875 121.351562 L 209.261719 121.269531 L 209.882812 121.277344 L 210.4375 121.261719 L 211.253906 121.261719 L 211.722656 121.292969 L 212.464844 121.066406 L 213.472656 120.644531 L 213.960938 120.1875 L 215.015625 119.414062 L 215.542969 118.78125 L 215.984375 118.273438 L 217.167969 116.445312 L 217.78125 115.347656 L 218.527344 113.847656 L 219.269531 112.539062 L 220.121094 111.363281 L 220.636719 110.503906 L 221.433594 109.058594 L 221.835938 108.128906 L 222.351562 106.8125 L 223.113281 104.886719 L 223.632812 103.734375 L 224.371094 102.054688 L 224.945312 100.667969 L 225.726562 99.007812 L 226.71875 97.199219 L 227.253906 95.929688 L 228.796875 91.941406 L 229.542969 90.210938 L 230.101562 89.128906 L 230.640625 88.1875 L 231.046875 87.382812 L 231.648438 86.230469 L 232.171875 85.363281 L 233.007812 83.960938 L 234.046875 82.414062 L 234.804688 81.128906 L 235.710938 79.90625 L 236.214844 79.308594 L 236.6875 78.757812 L 236.933594 78.488281 L 237.679688 77.738281 L 238.1875 77.511719 L 238.714844 77.234375 L 239.300781 77.246094 L 239.878906 77.261719 L 240.554688 77.453125 L 240.96875 77.742188 L 241.597656 78.234375 L 242.355469 78.742188 L 243.347656 79.425781 L 244.347656 80.222656 L 245.726562 81.511719 L 247.027344 82.335938 L 247.726562 82.53125 L 248.316406 82.6875 L 249.082031 82.984375 L 249.957031 83.4375 L 250.367188 83.820312 L 251.246094 84.628906 L 252.859375 85.941406 L 254.199219 87.191406 L 255.597656 88.292969 L 256.429688 88.714844 L 257.261719 89.421875 L 258.28125 90.148438 L 258.847656 90.441406 L 259.4375 90.675781 L 259.757812 90.890625 L 260.242188 91.230469 L 260.910156 91.765625 L 261.457031 92.046875 L 261.902344 92.097656 L 262.328125 92.039062 L 262.734375 92.179688 L 263.234375 92.371094 L 263.890625 92.609375 L 264.226562 92.710938 L 264.613281 92.890625 L 265.128906 93.285156 L 265.960938 93.578125 L 266.933594 94.003906 L 267.5 94.425781 L 268.113281 94.832031 L 269.070312 95.125 L 269.851562 95.410156 L 270.761719 95.882812 L 271.378906 96.316406 L 272.246094 96.839844 L 272.964844 97.246094 L 273.632812 97.609375 L 274.382812 98.125 L 275.84375 99.242188 L 277.15625 100.082031 L 277.71875 100.246094 L 278.320312 100.355469 L 279.066406 100.601562 L 280.214844 101.078125 L 280.777344 101.402344 L 281.804688 102.089844 L 282.539062 102.605469 L 283.144531 102.917969 L 283.792969 103.257812 L 285.199219 104.261719 L 286.246094 104.925781 L 286.882812 105.191406 L 287.5 105.375 L 288.296875 105.742188 L 288.648438 105.957031 L 289.617188 106.542969 L 290.476562 107.046875 L 291.265625 107.339844 L 292.492188 108.125 L 292.832031 108.296875 L 293.402344 108.671875 L 294.070312 109.082031 L 294.496094 109.363281 L 295.238281 109.757812 L 296.207031 110.234375 L 296.816406 110.339844 L 297.753906 110.25 L 298.109375 110.210938 L 298.777344 110.148438 L 299.214844 110.152344 L 299.828125 110.273438 L 300.292969 110.300781 L 301.167969 110.386719 L 301.683594 110.539062 L 302.375 110.808594 L 303.804688 111.730469 L 304.074219 111.867188 L 305.070312 112.230469 L 305.425781 112.34375 L 305.96875 112.203125 L 306.800781 112.089844 L 307.464844 112.253906 L 308.371094 112.519531 L 309.117188 112.855469 L 310.050781 112.882812 L 310.558594 112.742188 L 311.292969 112.414062 L 311.875 112.261719 L 312.113281 112.207031 L 312.789062 111.820312 L 313.296875 111.582031 L 314.25 111.332031 L 315.175781 111.324219 L 315.804688 111.378906 L 316.269531 111.382812 L 316.949219 111.496094 L 317.632812 111.640625 L 318.855469 112.332031 L 320.101562 112.632812 L 320.496094 112.703125 L 321.15625 112.867188 L 321.992188 113.1875 L 322.769531 113.496094 L 323.992188 114.183594 L 324.734375 114.460938 L 325.722656 114.605469 L 326.539062 114.800781 L 327.085938 114.921875 L 327.695312 114.902344 L 328.558594 115.019531 L 329.300781 115.042969 L 330.148438 115.058594 L 330.703125 115.234375 L 331.832031 115.722656 L 332.550781 116.097656 L 333.402344 116.535156 L 334.785156 117.257812 L 335.375 117.433594 L 336.171875 117.699219 L 336.910156 117.761719 L 337.425781 117.824219 L 338.078125 117.898438 L 338.722656 118.144531 L 339.691406 118.570312 L 340.558594 118.824219 L 341.507812 119.308594 L 342.074219 119.609375 L 343.199219 120.070312 L 344.480469 120.730469 L 345.269531 121.117188 L 346.28125 121.585938 L 347.179688 121.871094 L 348 122.195312 L 349.265625 122.847656 L 350.441406 123.351562 L 351.269531 123.730469 L 352.582031 124.375 L 353.339844 124.636719 L 353.695312 124.636719 L 354.195312 124.675781 L 355.191406 124.773438 L 355.898438 124.75 L 356.484375 124.65625 L 356.992188 124.582031 L 357.734375 124.59375 L 358.363281 124.65625 L 358.78125 124.679688 L 359.628906 124.734375 L 360.039062 124.800781 L 360.835938 125.078125 L 362.085938 125.660156 L 362.917969 126.011719 L 363.566406 126.246094 L 364.425781 126.449219 L 365.152344 126.714844 L 366.503906 127.335938 L 367.433594 127.65625 L 368.367188 128.03125 L 370.269531 128.867188 L 370.808594 129.082031 L 371.925781 129.492188 L 372.90625 129.878906 L 373.261719 129.980469 L 373.820312 130.21875 L 374.433594 130.390625 L 375.199219 130.640625 L 375.765625 130.828125 L 376.859375 131.136719 L 377.828125 131.390625 L 378.453125 131.488281 L 378.902344 131.625 L 379.644531 131.820312 L 380.761719 132.113281 L 381.492188 132.195312 L 382.203125 132.355469 L 382.707031 132.371094 L 383.289062 132.296875 L 384.007812 132.070312 L 384.820312 131.949219 L 385.085938 131.902344 L 385.964844 131.792969 L 386.71875 131.515625 L 387.289062 131.300781 L 387.625 131.195312 L 388.445312 130.917969 L 388.875 130.792969 L 389.429688 130.730469 L 390.027344 130.730469 L 390.769531 130.757812 L 391.273438 130.800781 L 391.9375 130.945312 L 392.648438 131.0625 L 393.164062 131.042969 L 393.671875 130.945312 L 394.550781 130.667969 L 395.445312 130.683594 L 396.257812 130.898438 L 396.882812 130.984375 L 397.339844 130.9375 L 397.902344 130.917969 L 398.613281 130.921875 L 399.277344 130.808594 L 400.082031 130.644531 L 400.761719 130.347656 L 401.035156 130.265625 L 401.769531 130.085938 L 402.6875 129.789062 L 403.113281 129.679688 L 403.773438 129.566406 L 404.609375 129.648438 L 405.4375 129.53125 L 406.289062 129.523438 L 407.097656 129.546875 L 407.332031 129.558594 L 407.847656 129.632812 L 408.464844 129.757812 L 409.324219 129.863281 L 409.8125 129.910156 L 410.640625 130.0625 L 411.351562 130.148438 L 412.035156 130.179688 L 412.378906 130.242188 L 413.171875 130.46875 L 414.261719 130.855469 L 415.089844 131.113281 L 416.007812 131.460938 L 416.628906 131.675781 L 417.339844 131.804688 L 418.011719 131.957031 L 418.933594 132.199219 L 419.722656 132.238281 L 420.59375 132.363281 L 421.265625 132.59375 L 421.917969 132.789062 L 422.613281 133.011719 L 423.1875 133.179688 L 424.050781 133.488281 L 424.875 133.789062 L 426.964844 134.574219 L 427.34375 134.683594 L 428.632812 135.089844 L 429.144531 135.238281 L 430.339844 135.644531 L 431.101562 135.722656 L 431.988281 135.683594 L 432.628906 135.539062 L 433.363281 135.421875 L 434.125 135.375 L 434.695312 135.347656 L 435.316406 135.296875 L 435.976562 135.226562 L 436.386719 135.242188 L 437.742188 135.117188 L 438.964844 135.175781 L 439.640625 135.339844 L 440.019531 135.398438 L 440.714844 135.546875 L 441.707031 135.882812 L 442.210938 136.027344 L 442.886719 136.136719 L 443.753906 136.324219 L 444.648438 136.609375 L 445.054688 136.730469 L 445.871094 136.96875 L 446.617188 137.140625 L 447.808594 137.480469 L 448.542969 137.699219 L 449.078125 137.746094 L 449.945312 137.644531 L 450.59375 137.695312 L 451.101562 137.640625 L 451.472656 137.652344 L 452.054688 137.734375 L 452.683594 137.902344 L 453.355469 138.121094 L 454 138.324219 L 454.488281 138.449219 L 455.097656 138.519531 L 455.304688 138.492188 L 455.824219 138.339844 L 457.09375 138.097656 L 458.210938 137.757812 L 458.75 137.691406 L 459.21875 137.585938 L 459.941406 137.410156 L 461.175781 137.203125 L 461.492188 137.167969 L 462.359375 136.972656 L 462.742188 136.914062 L 463.5 136.722656 L 464.011719 136.574219 L 464.15625 136.550781 L 464.796875 136.476562 L 465.234375 136.386719 L 465.84375 136.183594 L 466.445312 135.882812 L 467.066406 135.570312 L 467.65625 135.25 L 468.339844 134.855469 L 469.015625 134.496094 L 469.441406 134.296875 L 470.152344 133.996094 L 470.945312 133.640625 L 471.695312 133.296875 L 472.460938 132.875 L 472.972656 132.542969 L 473.90625 131.921875 L 474.59375 131.40625 L 475.488281 130.773438 L 476.300781 130.285156 L 477.0625 129.761719 L 478.398438 128.621094 L 478.660156 128.378906 L 478.972656 128.148438 L 479.535156 127.898438 L 479.78125 127.804688 L 480.582031 127.628906 L 480.894531 127.589844 L 481.773438 127.433594 L 482.519531 127.480469 L 483.160156 127.554688 L 484.035156 127.570312 L 484.480469 127.570312 L 485.25 127.53125 L 486.171875 127.605469 L 486.945312 127.492188 L 487.378906 127.410156 L 488.035156 127.304688 L 488.742188 127.21875 L 489.394531 127.117188 L 489.824219 127.015625 L 490.582031 126.953125 L 491.742188 127.332031 L 492.148438 127.457031 L 492.964844 127.605469 L 493.808594 127.699219 L 494.375 127.746094 L 494.9375 127.777344 L 495.640625 127.925781 L 496.15625 127.960938 L 496.898438 127.925781 L 497.941406 127.816406 L 498.488281 127.832031 L 498.828125 127.894531 L 499.613281 128.140625 L 500.390625 128.160156 L 501.136719 128.234375 L 501.625 128.15625 L 502.976562 127.984375 L 503.566406 127.96875 L 504.566406 128.097656 L 504.933594 128.191406 L 506.457031 128.664062 L 507.3125 128.898438 L 508.527344 129.050781 L 509.410156 129.152344 L 510.058594 129.242188 L 510.734375 129.359375 L 511.144531 129.40625 L 511.675781 129.414062 L 512.453125 129.496094 L 513.160156 129.554688 L 513.542969 129.558594 L 514.066406 129.46875 L 514.542969 129.46875 L 515.148438 129.609375 L 515.675781 129.738281 L 516.359375 129.9375 L 516.960938 130.113281 L 517.4375 130.253906 L 518.1875 130.320312 L 519.015625 130.300781 L 519.667969 130.367188 L 520.449219 130.445312 L 520.960938 130.492188 L 521.808594 130.683594 L 522.328125 130.78125 L 523.113281 130.914062 L 523.804688 131.050781 L 525.085938 131.230469 L 525.746094 131.265625 L 526.527344 131.171875 L 526.988281 131.195312 L 527.707031 131.359375 L 528.867188 131.660156 L 529.667969 131.894531 L 530.636719 132.167969 L 531.089844 132.28125 L 531.753906 132.332031 L 532.808594 132.328125 L 533.355469 132.328125 L 534.242188 132.160156 L 534.828125 131.953125 L 535.269531 131.832031 L 535.613281 131.757812 L 536.691406 131.40625 L 537.375 131.1875 L 537.96875 130.984375 L 538.617188 130.789062 L 539.394531 130.5 L 539.984375 130.222656 L 540.933594 129.59375 L 541.886719 128.792969 L 542.675781 128.167969 L 543.210938 127.773438 L 543.628906 127.550781 L 544.417969 127.128906 L 545.371094 126.699219 L 545.863281 126.449219 L 546.960938 125.867188 L 547.414062 125.628906 L 547.953125 125.425781 L 548.785156 125.121094 L 549.824219 124.628906 L 550.433594 124.285156 L 551.386719 123.699219 L 552.183594 123.207031 L 553.191406 122.804688 L 553.914062 122.554688 L 554.46875 122.328125 L 555.269531 122.097656 L 555.648438 121.980469 L 556.441406 121.734375 L 557.050781 121.609375 L 557.699219 121.472656 L 558.386719 121.296875 L 559.027344 121.042969 L 559.605469 120.769531 L 560.160156 120.519531 L 560.949219 120.140625 L 561.28125 120 L 561.773438 119.808594 L 562.234375 119.679688 L 562.855469 119.632812 L 563.597656 119.585938 L 564.035156 119.542969 L 564.988281 119.4375 L 565.433594 119.328125 L 566.332031 119.085938 L 567.035156 118.914062 L 567.777344 118.835938 L 568.347656 118.753906 L 568.917969 118.722656 L 569.589844 118.785156 "/>
<g fill="rgb(0%, 0%, 0%)" fill-opacity="1">
<use xlink:href="#glyph-733515-1-4" x="62" y="60"/>
<use xlink:href="#glyph-733515-1-5" x="65.333984" y="60"/>
<use xlink:href="#glyph-733515-1-6" x="72.007812" y="60"/>
<use xlink:href="#glyph-733515-1-7" x="76.003906" y="60"/>
<use xlink:href="#glyph-733515-1-7" x="82.677734" y="60"/>
<use xlink:href="#glyph-733515-1-1" x="89.351562" y="60"/>
<use xlink:href="#glyph-733515-1-8" x="92.685547" y="60"/>
<use xlink:href="#glyph-733515-1-7" x="98.685547" y="60"/>
<use xlink:href="#glyph-733515-1-7" x="105.359375" y="60"/>
<use xlink:href="#glyph-733515-1-9" x="112.033203" y="60"/>
<use xlink:href="#glyph-733515-1-8" x="118.707031" y="60"/>
<use xlink:href="#glyph-733515-1-10" x="124.707031" y="60"/>
<use xlink:href="#glyph-733515-1-1" x="128.041016" y="60"/>
<use xlink:href="#glyph-733515-1-11" x="131.375" y="60"/>
<use xlink:href="#glyph-733515-1-12" x="138.048828" y="60"/>
<use xlink:href="#glyph-733515-1-7" x="144.722656" y="60"/>
<use xlink:href="#glyph-733515-1-1" x="151.396484" y="60"/>
<use xlink:href="#glyph-733515-1-13" x="154.730469" y="60"/>
<use xlink:href="#glyph-733515-1-11" x="164.726562" y="60"/>
<use xlink:href="#glyph-733515-1-9" x="171.400391" y="60"/>
<use xlink:href="#glyph-733515-1-7" x="178.074219" y="60"/>
<use xlink:href="#glyph-733515-1-14" x="184.748047" y="60"/>
</g>
</svg>
